<svg width="14" height="14" viewBox="0 0 14 14" fill="none" xmlns="http://www.w3.org/2000/svg">
<path d="M5.43802 7L0.054719 0.583106C-0.0355148 0.476465 0.0403633 0.314453 0.179816 0.314453H1.81634C1.91273 0.314453 2.00501 0.357519 2.06859 0.431348L6.50853 5.72441L10.9485 0.431348C11.01 0.357519 11.1023 0.314453 11.2007 0.314453H12.8372C12.9767 0.314453 13.0526 0.476465 12.9623 0.583106L7.57903 7L12.9623 13.4169C12.9825 13.4407 12.9955 13.4697 12.9997 13.5007C13.0039 13.5316 12.9991 13.563 12.9859 13.5913C12.9728 13.6196 12.9518 13.6435 12.9254 13.6602C12.899 13.6769 12.8684 13.6857 12.8372 13.6855H11.2007C11.1043 13.6855 11.012 13.6425 10.9485 13.5687L6.50853 8.27559L2.06859 13.5687C2.00706 13.6425 1.91478 13.6855 1.81634 13.6855H0.179816C0.0403633 13.6855 -0.0355148 13.5235 0.054719 13.4169L5.43802 7Z" fill="white"/>
</svg>
