<svg width="164" height="171" viewBox="0 0 164 171" fill="none" xmlns="http://www.w3.org/2000/svg">
<path d="M160.24 170.166H3.76179C2.76513 170.165 1.80953 169.76 1.10441 169.039C0.399286 168.319 0.00213921 167.341 2.1679e-06 166.322V36.9326C-0.000528449 36.4266 0.0963515 35.9255 0.285112 35.4579C0.473872 34.9902 0.75082 34.5652 1.10013 34.2071C1.44945 33.8489 1.86429 33.5647 2.32097 33.3705C2.77766 33.1764 3.26725 33.0762 3.76179 33.0757H160.24C161.237 33.0773 162.193 33.4834 162.898 34.2049C163.603 34.9263 163.999 35.9043 164 36.9243V166.322C163.998 167.341 163.601 168.318 162.896 169.038C162.192 169.759 161.237 170.164 160.24 170.166ZM3.76179 35.5547C3.4069 35.5552 3.0667 35.6997 2.81575 35.9564C2.56481 36.2132 2.42358 36.5612 2.42305 36.9243V166.322C2.42358 166.685 2.56481 167.033 2.81575 167.289C3.0667 167.546 3.4069 167.691 3.76179 167.691H160.24C160.595 167.691 160.935 167.546 161.186 167.289C161.436 167.033 161.577 166.685 161.577 166.322V36.9326C161.577 36.5697 161.436 36.2216 161.186 35.9648C160.935 35.708 160.595 35.5635 160.24 35.5629L3.76179 35.5547Z" fill="#FF9533"/>
<path d="M39.4768 78.219H18.5537V99.6251H39.4768V78.219Z" fill="#FFD5AE"/>
<path d="M146.452 100.657H17.5439V77.1853H146.452V100.657ZM19.5632 98.5914H144.433V79.2511H19.5632V98.5914Z" fill="#FF9533"/>
<path d="M29.7848 88.5269C30.1547 88.3389 30.4516 88.0286 30.6274 87.6463C30.8031 87.2639 30.8474 86.832 30.753 86.4207C30.6587 86.0094 30.4312 85.6427 30.1076 85.3803C29.7839 85.1179 29.383 84.9751 28.9701 84.9751C28.5571 84.9751 28.1562 85.1179 27.8326 85.3803C27.5089 85.6427 27.2815 86.0094 27.1871 86.4207C27.0927 86.832 27.137 87.2639 27.3128 87.6463C27.4886 88.0286 27.7855 88.3389 28.1553 88.5269C27.5454 88.7056 27.0088 89.0823 26.6264 89.6003C26.244 90.1182 26.0365 90.7493 26.0352 91.3984V92.8135H31.907V91.3984C31.9052 90.7491 31.6973 90.118 31.3146 89.6001C30.9318 89.0822 30.395 88.7055 29.7848 88.5269Z" fill="#FF9533"/>
<path d="M39.4768 105.374H18.5537V126.78H39.4768V105.374Z" fill="#FFD5AE"/>
<path d="M146.655 128.018H17.3428V104.141H146.655V128.018ZM19.7658 125.539H144.232V106.62H19.7658V125.539Z" fill="#FF9533"/>
<path d="M31.3529 114.148H30.84V113.496C30.84 112.915 30.6145 112.358 30.2131 111.947C29.8117 111.537 29.2673 111.306 28.6996 111.306C28.132 111.306 27.5876 111.537 27.1862 111.947C26.7848 112.358 26.5593 112.915 26.5593 113.496V114.148H26.0444C25.8514 114.15 25.6666 114.229 25.5301 114.368C25.3936 114.508 25.3165 114.697 25.3154 114.894V119.156C25.3149 119.355 25.3913 119.546 25.5278 119.687C25.6644 119.828 25.8501 119.908 26.0444 119.91H31.3509C31.4477 119.91 31.5437 119.891 31.6332 119.853C31.7227 119.815 31.8041 119.76 31.8726 119.69C31.9411 119.62 31.9954 119.537 32.0323 119.445C32.0693 119.353 32.0881 119.255 32.0879 119.156V114.894C32.0863 114.696 32.0081 114.506 31.8705 114.367C31.7328 114.227 31.5468 114.148 31.3529 114.148ZM27.5285 113.496C27.5219 113.334 27.5474 113.173 27.6033 113.021C27.6593 112.87 27.7446 112.732 27.8541 112.615C27.9636 112.498 28.095 112.405 28.2405 112.342C28.386 112.278 28.5425 112.246 28.7006 112.246C28.8588 112.246 29.0153 112.278 29.1608 112.342C29.3063 112.405 29.4377 112.498 29.5472 112.615C29.6567 112.732 29.742 112.87 29.7979 113.021C29.8539 113.173 29.8794 113.334 29.8728 113.496V114.148H27.5285V113.496ZM29.0974 117.935V119.026C29.0969 119.037 29.0943 119.047 29.0897 119.057C29.0852 119.067 29.0788 119.076 29.0709 119.083C29.0631 119.09 29.0538 119.096 29.0438 119.1C29.0338 119.103 29.0232 119.105 29.0126 119.104H28.5038C28.4832 119.104 28.4635 119.096 28.4488 119.082C28.4341 119.067 28.4255 119.047 28.425 119.026V117.935C28.2208 117.855 28.0504 117.704 27.9436 117.509C27.8367 117.313 27.8001 117.086 27.84 116.866C27.88 116.645 27.9939 116.447 28.1622 116.303C28.3305 116.16 28.5424 116.082 28.7612 116.082C28.98 116.082 29.192 116.16 29.3602 116.303C29.5285 116.447 29.6425 116.645 29.6824 116.866C29.7223 117.086 29.6857 117.313 29.5788 117.509C29.472 117.704 29.3017 117.855 29.0974 117.935Z" fill="#FF9533"/>
<path d="M107.262 38.0615C110.556 23.7815 101.912 9.47309 87.9543 6.10271C73.9966 2.73234 60.0111 11.5763 56.7168 25.8563C53.4225 40.1362 62.0669 54.4446 76.0246 57.815C89.9822 61.1854 103.968 52.3414 107.262 38.0615Z" fill="#FF3666"/>
<path d="M81.9985 31.2316C80.5496 31.2316 79.1331 30.792 77.9284 29.9684C76.7237 29.1447 75.7847 27.9741 75.2303 26.6044C74.6759 25.2348 74.5309 23.7278 74.8138 22.2738C75.0966 20.8199 75.7945 19.4845 76.8192 18.4364C77.8439 17.3883 79.1494 16.6747 80.5706 16.3857C81.9918 16.0967 83.4648 16.2455 84.8034 16.813C86.1419 17.3806 87.2859 18.3416 88.0906 19.5744C88.8953 20.8072 89.3246 22.2564 89.3242 23.7388C89.3221 25.7257 88.5495 27.6306 87.1761 29.0353C85.8027 30.4401 83.9406 31.23 81.9985 31.2316ZM81.9985 17.3162C80.7569 17.3162 79.5432 17.6929 78.5108 18.3986C77.4785 19.1043 76.6738 20.1074 76.1987 21.281C75.7235 22.4546 75.5992 23.746 75.8414 24.9918C76.0837 26.2377 76.6816 27.3821 77.5595 28.2803C78.4375 29.1786 79.5561 29.7903 80.7738 30.0381C81.9916 30.2859 83.2538 30.1587 84.4009 29.6726C85.548 29.1865 86.5285 28.3633 87.2183 27.3071C87.9081 26.2509 88.2763 25.0091 88.2763 23.7388C88.2752 22.0358 87.6134 20.4028 86.4364 19.1985C85.2593 17.9943 83.6632 17.3173 81.9985 17.3162Z" fill="white"/>
<path d="M95.2522 44.2515H68.748V43.7144C68.748 40.1192 70.144 36.6711 72.6289 34.1289C75.1138 31.5867 78.484 30.1584 81.9981 30.1584C85.5122 30.1584 88.8824 31.5867 91.3673 34.1289C93.8521 36.6711 95.2481 40.1192 95.2481 43.7144L95.2522 44.2515ZM69.8102 43.1794H94.19C94.0558 39.9636 92.7128 36.9251 90.4412 34.6982C88.1697 32.4713 85.1452 31.2281 81.9991 31.2281C78.853 31.2281 75.8285 32.4713 73.5569 34.6982C71.2854 36.9251 69.9423 39.9636 69.8081 43.1794H69.8102Z" fill="white"/>
</svg>
