<svg width="103" height="170" viewBox="0 0 103 170" fill="none" xmlns="http://www.w3.org/2000/svg">
<path d="M61.2068 153.029H41.8336C41.0831 153.109 40.3297 152.903 39.7361 152.455C39.1425 152.006 38.7564 151.352 38.6611 150.633C38.7666 149.918 39.1554 149.27 39.7464 148.824C40.3374 148.378 41.0851 148.168 41.8336 148.238H61.2068C61.9505 148.168 62.6931 148.38 63.2773 148.827C63.8615 149.274 64.2416 149.922 64.337 150.633C64.252 151.349 63.8747 152.003 63.2879 152.452C62.7011 152.901 61.9527 153.108 61.2068 153.029Z" fill="#FF9533"/>
<path d="M86.9681 170H16.0316C11.7797 170 7.70204 168.379 4.69554 165.493C1.68904 162.607 0 158.693 0 154.612L0 15.3881C0 11.3069 1.68904 7.39291 4.69554 4.50707C7.70204 1.62124 11.7797 0 16.0316 0L86.9681 0C91.2199 0 95.2976 1.62124 98.3041 4.50707C101.311 7.39291 103 11.3069 103 15.3881V154.612C103 158.693 101.311 162.607 98.3041 165.493C95.2976 168.379 91.2199 170 86.9681 170ZM16.0316 4.06019C12.9016 4.06019 9.8998 5.25366 7.68657 7.37806C5.47334 9.50246 4.22996 12.3838 4.22996 15.3881V154.612C4.22996 157.616 5.47334 160.498 7.68657 162.622C9.8998 164.746 12.9016 165.94 16.0316 165.94H86.9681C90.098 165.94 93.0998 164.746 95.3131 162.622C97.5263 160.498 98.7697 157.616 98.7697 154.612V15.3881C98.7697 12.3838 97.5263 9.50246 95.3131 7.37806C93.0998 5.25366 90.098 4.06019 86.9681 4.06019H16.0316Z" fill="#FF9533"/>
<path d="M102.915 137.6H0V25.4575H102.915V137.6ZM4.22996 133.337H98.6851V29.6801H4.22996V133.337Z" fill="#FF3666"/>
<g clip-path="url(#clip0_367:8260)">
<path d="M37.1235 75.3551C39.8096 66.9001 49.1089 62.1412 57.8942 64.7263C59.268 65.1305 60.5465 65.6902 61.7173 66.379L59.1138 74.5758C58.1512 73.5806 56.9115 72.8074 55.4626 72.3816C51.0705 71.0896 46.4202 73.4684 45.0778 77.6953C43.7354 81.9222 46.2071 86.3975 50.5992 87.6895C54.9913 88.9814 59.6415 86.6026 60.984 82.3757L68.6412 58.2702L64.7919 54.5657C58.2966 48.3147 47.764 48.3147 41.2686 54.5657L26.5658 68.7156C20.0705 74.9667 20.0705 85.1031 26.5658 91.3542L30.7586 95.3893L37.1235 75.3551Z" fill="#FF9533"/>
<path d="M79.496 68.7168L75.3033 64.6816L68.9396 84.7171C66.2535 93.172 56.9542 97.9309 48.1688 95.3458C45.2709 94.493 42.7916 92.9488 40.8663 90.9573L37.4219 101.802L41.2712 105.506C47.7665 111.757 58.2992 111.757 64.7945 105.506L79.4973 91.3565C85.9926 85.1043 85.9926 74.969 79.496 68.7168Z" fill="#FF9533"/>
</g>
<defs>
<clipPath id="clip0_367:8260">
<rect width="62.6742" height="60.3171" fill="white" transform="translate(21.6943 49.8774)"/>
</clipPath>
</defs>
</svg>
