<svg width="24" height="24" viewBox="0 0 24 24" fill="none" xmlns="http://www.w3.org/2000/svg">
<g clip-path="url(#clip0_367:17565)">
<path d="M20.6566 14.8581C20.079 14.3083 19.3117 14.0022 18.5142 14.0035C17.7167 14.0048 16.9504 14.3134 16.3746 14.8651L14.4686 16.4711C12.9127 15.827 11.4994 14.8819 10.3098 13.6901C9.12025 12.4982 8.1778 11.0832 7.5366 9.52611L9.1366 7.62611C9.68789 7.0502 9.99611 6.28404 9.99722 5.48681C9.99834 4.68958 9.69227 3.92256 9.1426 3.34511C9.1426 3.34511 7.2916 0.942109 7.2606 0.911108C6.69014 0.336317 5.91631 0.00923481 5.10654 0.000626145C4.29676 -0.00798252 3.51616 0.302575 2.93361 0.865108L1.78361 1.86511C-5.93638 10.0731 13.9836 30.0031 22.1836 22.1651L23.0956 21.1151C23.6745 20.5341 23.9995 19.7473 23.9995 18.9271C23.9995 18.1069 23.6745 17.3201 23.0956 16.7391C23.0636 16.7101 20.6566 14.8581 20.6566 14.8581ZM22.5646 12.5751C27.5556 5.22911 18.7646 -3.54789 11.4266 1.43911C11.2091 1.59094 11.0609 1.82296 11.0145 2.0841C10.968 2.34524 11.0273 2.61413 11.1791 2.83161C11.3309 3.04909 11.5629 3.19734 11.8241 3.24375C12.0852 3.29017 12.3541 3.23094 12.5716 3.07911C18.0436 -0.678891 24.6816 5.96211 20.9246 11.4311C20.8463 11.5386 20.7902 11.6607 20.7596 11.7902C20.7291 11.9197 20.7247 12.054 20.7467 12.1852C20.7687 12.3164 20.8166 12.4419 20.8877 12.5543C20.9589 12.6668 21.0517 12.7639 21.1608 12.84C21.2699 12.9161 21.3931 12.9697 21.5232 12.9976C21.6533 13.0255 21.7876 13.0272 21.9183 13.0025C22.0491 12.9778 22.1736 12.9273 22.2845 12.8539C22.3955 12.7805 22.4907 12.6858 22.5646 12.5751ZM18.7066 10.7101C18.8941 10.5226 18.9994 10.2683 18.9994 10.0031C18.9994 9.73794 18.8941 9.48364 18.7066 9.29611L16.9996 7.58911V5.00011C16.9996 4.73489 16.8942 4.48054 16.7067 4.293C16.5192 4.10547 16.2648 4.00011 15.9996 4.00011C15.7344 4.00011 15.48 4.10547 15.2925 4.293C15.1049 4.48054 14.9996 4.73489 14.9996 5.00011V8.00011C14.9997 8.2653 15.105 8.51962 15.2926 8.70711L17.2926 10.7071C17.4801 10.8946 17.7344 10.9999 17.9996 10.9999C18.2648 10.9999 18.5191 10.8946 18.7066 10.7071V10.7101Z" fill="white"/>
</g>
<defs>
<clipPath id="clip0_367:17565">
<rect width="24" height="24" fill="white"/>
</clipPath>
</defs>
</svg>
