<svg width="27" height="23" viewBox="0 0 27 23" fill="none" xmlns="http://www.w3.org/2000/svg">
<g clip-path="url(#clip0_367:17572)">
<path d="M26.4502 5.31094L17.3307 13.3782C16.3138 14.2754 14.9362 14.7793 13.5 14.7793C12.0638 14.7793 10.6862 14.2754 9.66933 13.3782L0.549833 5.31094C0.534667 5.46236 0.5 5.5994 0.5 5.74986V17.2499C0.50172 18.5202 1.07296 19.7381 2.0884 20.6364C3.10385 21.5347 4.48061 22.04 5.91667 22.0415H21.0833C22.5194 22.04 23.8961 21.5347 24.9116 20.6364C25.927 19.7381 26.4983 18.5202 26.5 17.2499V5.74986C26.5 5.5994 26.4653 5.46236 26.4502 5.31094Z" fill="white"/>
<path d="M15.7985 12.0231L25.6937 3.26873C25.2143 2.56562 24.5382 1.98364 23.7306 1.57893C22.923 1.17422 22.0112 0.960434 21.083 0.958191H5.91633C4.98815 0.960434 4.07629 1.17422 3.26869 1.57893C2.4611 1.98364 1.78502 2.56562 1.30566 3.26873L11.2008 12.0231C11.8114 12.561 12.638 12.8631 13.4997 12.8631C14.3614 12.8631 15.188 12.561 15.7985 12.0231V12.0231Z" fill="white"/>
</g>
<defs>
<clipPath id="clip0_367:17572">
<rect width="26" height="23" fill="white" transform="translate(0.5)"/>
</clipPath>
</defs>
</svg>
