<svg width="39" height="40" viewBox="0 0 39 40" fill="none" xmlns="http://www.w3.org/2000/svg">
<rect opacity="0.25" x="0.75" y="0.75" width="37.5" height="38.2354" rx="18.75" stroke="white" stroke-width="1.5"/>
<path fill-rule="evenodd" clip-rule="evenodd" d="M16 26.4902H13V17.3208H16V26.4902Z" fill="white"/>
<path fill-rule="evenodd" clip-rule="evenodd" d="M14.4911 15.2832H14.474C13.5788 15.2832 13 14.6036 13 13.7544C13 12.8871 13.5964 12.2266 14.5087 12.2266C15.4209 12.2266 15.9827 12.8871 16 13.7544C16 14.6036 15.4209 15.2832 14.4911 15.2832Z" fill="white"/>
<path fill-rule="evenodd" clip-rule="evenodd" d="M26.9999 26.49H24.0519V21.697C24.0519 20.4931 23.6253 19.6716 22.5581 19.6716C21.7437 19.6716 21.2586 20.2254 21.0455 20.7603C20.9675 20.952 20.9484 21.2191 20.9484 21.4869V26.4902H18C18 26.4902 18.0389 18.3721 18 17.5314H20.9484V18.8004C21.3397 18.1903 22.0405 17.3208 23.6057 17.3208C25.5456 17.3208 27 18.6015 27 21.3533L26.9999 26.49Z" fill="white"/>
</svg>
