<svg width="39" height="40" viewBox="0 0 39 40" fill="none" xmlns="http://www.w3.org/2000/svg">
<rect opacity="0.25" x="0.75" y="0.75" width="37.5" height="38.2354" rx="18.75" stroke="white" stroke-width="1.5"/>
<path fill-rule="evenodd" clip-rule="evenodd" d="M19.3122 17.2455L19.3404 17.7303L18.8708 17.6709C17.1612 17.4434 15.6677 16.6717 14.3996 15.3758L13.7796 14.7327L13.62 15.2076C13.2818 16.2661 13.4978 17.384 14.2023 18.1359C14.5781 18.5514 14.4935 18.6108 13.8454 18.3634C13.62 18.2843 13.4227 18.2249 13.4039 18.2546C13.3382 18.3239 13.5636 19.2241 13.7421 19.5803C13.9863 20.0749 14.4841 20.5597 15.0289 20.8466L15.4892 21.0741L14.9444 21.084C14.4184 21.084 14.3996 21.0939 14.4559 21.3017C14.6438 21.9447 15.3859 22.6273 16.2125 22.9241L16.7949 23.1319L16.2876 23.4484C15.5362 23.9035 14.6532 24.1607 13.7702 24.1805C13.3475 24.1904 13 24.23 13 24.2597C13 24.3586 14.146 24.9126 14.8129 25.1303C16.8136 25.7733 19.1901 25.4963 20.9748 24.3982C22.2429 23.6166 23.511 22.0634 24.1028 20.5597C24.4222 19.7584 24.7415 18.2942 24.7415 17.5918C24.7415 17.1367 24.7697 17.0774 25.2957 16.5332C25.6057 16.2167 25.8969 15.8704 25.9532 15.7715C26.0472 15.5835 26.0378 15.5835 25.5587 15.7517C24.7603 16.0485 24.6476 16.0089 25.0421 15.5637C25.3333 15.2471 25.6808 14.6734 25.6808 14.5052C25.6808 14.4755 25.5399 14.525 25.3803 14.614C25.2112 14.7129 24.8355 14.8613 24.5537 14.9504L24.0464 15.1185L23.5862 14.7921C23.3325 14.614 22.9756 14.4161 22.7877 14.3568C22.3087 14.2183 21.576 14.2381 21.1439 14.3964C19.9698 14.8415 19.2277 15.9891 19.3122 17.2455Z" fill="white"/>
</svg>
