<svg width="398" height="398" viewBox="0 0 398 398" fill="none" xmlns="http://www.w3.org/2000/svg">
<g filter="url(#filter0_d_189:25970)">
<path d="M72.7662 242.548C43.7446 213.527 43.7446 166.473 72.7662 137.452L138.452 71.7662C167.473 42.7446 214.527 42.7446 243.548 71.7662L309.234 137.452C338.255 166.473 338.255 213.527 309.234 242.548L243.548 308.234C214.527 337.255 167.473 337.255 138.452 308.234L72.7662 242.548Z" fill="white"/>
<path d="M73.1198 242.195C44.2934 213.368 44.2934 166.632 73.1198 137.805L138.805 72.1198C167.632 43.2934 214.368 43.2934 243.195 72.1198L308.88 137.805C337.707 166.632 337.707 213.368 308.88 242.195L243.195 307.88C214.368 336.707 167.632 336.707 138.805 307.88L73.1198 242.195Z" stroke="#F7F7F7"/>
</g>
<path opacity="0.5" d="M147.537 269.454C134.481 269.454 124.737 265.181 118.305 256.637C111.969 248.093 108.801 236.813 108.801 222.797V210.989C108.801 196.973 111.969 185.741 118.305 177.293C124.737 168.845 134.481 164.621 147.537 164.621C160.689 164.621 170.433 168.893 176.769 177.438C183.201 185.885 186.417 197.069 186.417 210.989V222.797C186.417 236.813 183.201 248.093 176.769 256.637C170.337 265.181 160.593 269.454 147.537 269.454ZM147.537 252.173C153.297 252.173 157.473 249.773 160.065 244.973C162.753 240.077 164.097 232.925 164.097 223.517V210.125C164.097 200.813 162.753 193.805 160.065 189.101C157.473 184.301 153.297 181.901 147.537 181.901C141.873 181.901 137.697 184.301 135.009 189.101C132.417 193.805 131.121 200.813 131.121 210.125V223.517C131.121 232.925 132.417 240.077 135.009 244.973C137.697 249.773 141.873 252.173 147.537 252.173ZM235.378 268.734C223.858 268.734 214.978 265.902 208.738 260.237C202.498 254.573 198.802 247.373 197.65 238.637H217.81C218.866 242.573 220.882 245.645 223.858 247.853C226.834 250.061 230.626 251.165 235.234 251.165C240.514 251.165 244.594 249.821 247.474 247.133C250.45 244.349 251.938 240.845 251.938 236.621C251.938 232.109 250.354 228.605 247.186 226.109C244.114 223.517 240.178 222.221 235.378 222.221H226.306V207.101H235.522C239.842 207.101 243.394 205.997 246.178 203.789C248.962 201.485 250.354 198.269 250.354 194.141C250.354 190.013 248.914 186.701 246.034 184.205C243.25 181.709 239.554 180.461 234.946 180.461C230.53 180.461 226.978 181.565 224.29 183.773C221.698 185.981 220.018 189.005 219.25 192.845H199.666C200.914 184.685 204.37 177.869 210.034 172.397C215.698 166.829 224.05 164.045 235.09 164.045C243.154 164.045 249.826 165.533 255.106 168.509C260.386 171.389 264.178 175.085 266.482 179.597C268.882 184.109 270.082 188.717 270.082 193.422C270.082 198.221 268.93 202.205 266.626 205.373C264.418 208.541 262.018 210.893 259.426 212.429C256.93 213.965 255.346 214.733 254.674 214.733V215.597C256.69 216.269 258.754 217.181 260.866 218.333C262.978 219.389 265.234 221.597 267.634 224.957C270.034 228.317 271.234 232.829 271.234 238.493C271.234 243.869 269.938 248.861 267.346 253.469C264.754 258.077 260.77 261.773 255.394 264.557C250.018 267.341 243.346 268.734 235.378 268.734Z" fill="#FFD5AE"/>
<path d="M191.392 123.801C195.973 113.19 208.383 107.349 219.862 109.093C228.487 110.398 234.961 115.769 239.096 122.759C243.228 129.743 245.044 138.37 244.359 146.274C244.359 146.274 244.359 146.274 244.359 146.274L243.861 146.231C243.464 150.837 242.688 156.349 238.862 159.467L191.392 123.801ZM191.392 123.801C189.178 118.892 185.113 114.818 180.477 112.198L180.476 112.198C172.078 107.471 163.811 107.424 154.845 111.212L154.844 111.212C147.847 114.169 142.436 121.91 139.566 128.554L139.565 128.555C135.919 137.068 137.773 147.43 139.993 155.877L139.993 155.878C140.132 156.408 140.455 156.783 140.87 156.983C141.274 157.178 141.729 157.191 142.13 157.08C142.532 156.968 142.915 156.722 143.165 156.351C143.422 155.968 143.517 155.482 143.378 154.952M191.392 123.801L143.378 154.952M190.463 202.856C193.764 203.314 199.049 199.218 202.792 196.318C203.797 195.54 204.691 194.848 205.405 194.353M190.463 202.856L180.231 112.633C171.984 107.992 163.882 107.937 155.039 111.672C148.218 114.555 142.876 122.152 140.025 128.752C136.452 137.093 138.256 147.301 140.476 155.75C140.891 157.328 143.309 156.657 142.894 155.08M190.463 202.856C189.113 202.67 187.405 201.415 185.912 200.317C185.231 199.817 184.594 199.349 184.057 199.031M190.463 202.856L184.057 199.031M205.405 194.353C215.98 186.991 224.804 177.454 232.799 167.391C233.809 166.122 235.578 167.935 234.585 169.186C222.494 184.398 208.78 196.492 191.762 205.83M205.405 194.353L205.12 193.942C205.12 193.942 205.12 193.942 205.119 193.942M205.405 194.353L205.119 193.942M191.762 205.83C191.383 206.048 190.896 206.066 190.499 205.83C188.32 204.494 186.125 203.182 183.931 201.872C176.658 197.527 169.391 193.185 162.709 187.934M191.762 205.83L192.003 206.268C192.004 206.268 192.005 206.267 192.007 206.266M191.762 205.83L192.011 206.264C192.01 206.264 192.008 206.265 192.007 206.266M162.709 187.934C158.468 184.616 154.462 180.971 151.105 176.747C150.832 176.401 150.54 176.041 150.237 175.668C147.982 172.885 145.137 169.373 145.042 165.904M162.709 187.934L162.4 188.327C162.4 188.327 162.4 188.328 162.4 188.328M162.709 187.934L162.4 188.328M145.042 165.904C144.83 159.107 151.215 159.264 156.123 159.384C156.648 159.397 157.156 159.409 157.638 159.413C159.92 159.431 162.203 159.445 164.486 159.458C166.769 159.472 169.052 159.485 171.334 159.504C171.619 159.509 172.056 159.557 172.555 159.612C173.861 159.755 175.596 159.946 176.171 159.54C177.159 158.853 177.622 155.399 177.905 153.287C177.958 152.892 178.005 152.544 178.047 152.269M145.042 165.904L144.542 165.918C144.542 165.918 144.542 165.918 144.542 165.919M145.042 165.904L144.542 165.92C144.542 165.919 144.542 165.919 144.542 165.919M178.047 152.269C178.228 151.018 180.213 151.109 180.466 152.269M178.047 152.269L177.553 152.192C177.553 152.193 177.553 152.194 177.553 152.195M178.047 152.269L177.553 152.198C177.553 152.197 177.553 152.196 177.553 152.195M180.466 152.269C180.854 154.019 181.242 155.764 181.63 157.509C181.934 158.877 182.238 160.244 182.542 161.614L182.802 160.482M180.466 152.269L180.954 152.163C180.954 152.162 180.954 152.162 180.954 152.162M180.466 152.269L180.954 152.161C180.954 152.161 180.954 152.161 180.954 152.162M182.802 160.482C182.886 160.86 182.97 161.238 183.054 161.616L187.991 140.175M182.802 160.482L187.502 140.069L187.991 140.175M182.802 160.482C182.574 159.454 182.346 158.427 182.118 157.401L182.116 157.394C181.729 155.651 181.341 153.909 180.954 152.162M187.991 140.175C188.243 139.015 190.192 138.924 190.409 140.175C191.537 146.911 192.172 153.704 192.807 160.5C193.138 164.049 193.47 167.6 193.872 171.144C193.982 170.633 194.094 170.124 194.206 169.615M187.991 140.175L187.503 140.063L187.503 140.066C187.694 139.194 188.504 138.786 189.203 138.771C189.916 138.756 190.739 139.15 190.902 140.09L190.902 140.093C192.033 146.842 192.671 153.672 193.308 160.484C193.593 163.534 193.878 166.581 194.206 169.615M194.206 169.615C194.262 170.133 194.32 170.651 194.378 171.169C194.687 169.737 195.009 168.309 195.331 166.881C196.343 162.394 197.354 157.911 197.934 153.339M194.206 169.615C194.418 168.656 194.634 167.7 194.849 166.745C195.859 162.269 196.861 157.823 197.438 153.276M197.934 153.339C198.114 151.906 199.883 151.616 200.406 152.994M197.934 153.339L197.438 153.276C197.438 153.276 197.438 153.276 197.438 153.276M197.934 153.339L197.438 153.276M200.406 152.994C200.478 153.182 200.594 153.503 200.738 153.904C201.281 155.415 202.235 158.071 202.852 159.094C202.898 159.057 202.94 159.036 202.96 159.027C203.008 159.005 203.049 158.996 203.062 158.993C203.073 158.991 203.082 158.989 203.09 158.987C203.097 158.986 203.103 158.985 203.107 158.985C203.145 158.979 203.186 158.976 203.216 158.974C203.256 158.972 203.307 158.97 203.365 158.968M200.406 152.994L200.873 152.815C200.873 152.815 200.873 152.816 200.873 152.816C200.948 153.01 201.066 153.338 201.211 153.742C201.264 153.891 201.322 154.05 201.382 154.216C201.607 154.84 201.875 155.575 202.152 156.291C202.429 157.008 202.711 157.696 202.962 158.227C203.088 158.493 203.201 158.709 203.299 158.866C203.323 158.906 203.345 158.939 203.365 158.968M200.406 152.994L143.378 154.952M203.365 158.968C203.385 158.997 203.402 159.02 203.417 159.038C203.433 159.057 203.442 159.067 203.446 159.07M203.365 158.968C203.403 158.967 203.445 158.966 203.489 158.965C203.712 158.959 204.019 158.956 204.344 158.954C204.993 158.949 205.721 158.949 206 158.949H206.005C209.006 158.975 212.014 158.955 215.023 158.934C216.226 158.926 217.428 158.918 218.63 158.913M203.446 159.07C203.443 159.068 203.44 159.066 203.436 159.064M203.446 159.07C203.447 159.072 203.448 159.072 203.448 159.072C203.448 159.072 203.444 159.069 203.436 159.064M203.446 159.07C203.469 159.086 203.497 159.108 203.525 159.136C203.576 159.189 203.658 159.301 203.665 159.461C204.37 159.449 205.613 159.449 206 159.449C209.006 159.475 212.02 159.455 215.03 159.434C216.232 159.426 217.433 159.418 218.633 159.413M203.436 159.064C203.435 159.063 203.434 159.062 203.432 159.061M203.436 159.064C203.435 159.063 203.434 159.062 203.432 159.061M203.432 159.061C203.415 159.051 203.401 159.043 203.392 159.039L203.169 159.482C203.169 159.481 203.17 159.481 203.17 159.481C203.175 159.48 203.185 159.478 203.199 159.477L203.432 159.061ZM218.633 159.413C219.838 159.407 221.146 159.46 222.503 159.515C229.493 159.799 237.789 160.135 240.161 152.741C244.673 138.761 238.898 120.303 225.219 113.794M218.633 159.413L218.63 158.913C218.63 158.913 218.63 158.913 218.63 158.913M218.633 159.413L218.63 158.913M225.219 113.794C212.335 107.665 193.964 115.698 192.647 130.747M225.219 113.794L225.004 114.245M225.219 113.794L225.004 114.245C225.004 114.245 225.004 114.245 225.004 114.245M192.647 130.747C192.52 132.361 190.246 132.379 190.138 130.747C189.597 122.533 182.631 116.242 175.629 113.032C168.952 109.968 158.612 111.527 152.603 115.97C139.808 125.398 139.195 140.973 142.894 155.08M192.647 130.747L193.145 130.79C193.145 130.79 193.145 130.789 193.145 130.789M192.647 130.747L193.145 130.786C193.145 130.787 193.145 130.788 193.145 130.789M142.894 155.08L143.378 154.952M142.894 155.08L143.378 154.953C143.378 154.953 143.378 154.952 143.378 154.952M143.378 154.952C139.696 140.912 140.358 125.614 152.9 116.372L152.9 116.372C155.824 114.21 159.827 112.735 163.933 112.181C168.04 111.628 172.192 112.005 175.421 113.487L175.421 113.487C182.354 116.665 189.116 122.837 189.639 130.78L189.639 130.78C189.713 131.885 190.553 132.467 191.388 132.464C192.217 132.461 193.058 131.88 193.145 130.789M193.145 130.789C193.786 123.475 198.57 117.841 204.815 114.778C211.066 111.712 218.719 111.256 225.004 114.245M225.004 114.245C231.7 117.431 236.486 123.555 239.041 130.636C241.597 137.717 241.904 145.712 239.685 152.587L239.685 152.588C239.011 154.688 237.846 156.112 236.37 157.086C234.883 158.066 233.057 158.605 231.048 158.879C229.04 159.153 226.879 159.159 224.742 159.097C224.005 159.076 223.267 159.046 222.54 159.016C221.175 158.961 219.847 158.907 218.63 158.913M197.438 153.276L203.92 162.445C203.919 162.445 203.919 162.445 203.919 162.445C201.954 162.136 200.744 161.065 199.89 159.696M180.954 152.162C180.762 151.284 179.938 150.879 179.24 150.865C178.529 150.85 177.692 151.241 177.553 152.195M177.553 152.195C177.508 152.486 177.46 152.844 177.406 153.246C177.292 154.098 177.152 155.144 176.957 156.157C176.814 156.896 176.647 157.587 176.45 158.135C176.352 158.409 176.25 158.636 176.147 158.81C176.041 158.988 175.95 159.084 175.885 159.129L175.882 159.132C175.808 159.184 175.599 159.251 175.195 159.275C174.819 159.297 174.363 159.279 173.88 159.241C173.45 159.207 173.014 159.159 172.61 159.115C172.562 159.109 172.514 159.104 172.467 159.099C172.035 159.052 171.628 159.009 171.343 159.004L171.338 159.004C169.055 158.986 166.772 158.972 164.489 158.958H164.488C162.206 158.945 159.924 158.931 157.642 158.913L157.641 158.913C157.179 158.91 156.678 158.897 156.155 158.885C155.312 158.864 154.412 158.842 153.529 158.854C152.081 158.873 150.592 158.981 149.254 159.34C147.914 159.7 146.691 160.322 145.822 161.396C144.948 162.474 144.481 163.949 144.542 165.919M144.542 165.919C144.6 168.026 145.6 170.102 146.829 171.98C147.771 173.419 148.881 174.789 149.86 175.996C150.159 176.366 150.447 176.72 150.713 177.057L150.714 177.058C154.103 181.324 158.141 184.995 162.4 188.328M162.4 188.328C169.11 193.6 176.415 197.964 183.692 202.312C185.882 203.62 188.07 204.927 190.238 206.256L190.244 206.26C190.806 206.594 191.484 206.564 192.007 206.266M192.007 206.266C209.087 196.893 222.85 184.754 234.976 169.497L234.977 169.497C235.669 168.624 235.372 167.574 234.799 166.992C234.508 166.697 234.109 166.477 233.662 166.46C233.196 166.443 232.749 166.651 232.407 167.079L232.407 167.08C224.426 177.126 215.637 186.621 205.119 193.942M205.119 193.942C204.393 194.446 203.487 195.148 202.484 195.925C202.302 196.066 202.117 196.209 201.93 196.354C200.698 197.306 199.339 198.342 197.956 199.286C196.572 200.232 195.181 201.074 193.888 201.644C192.584 202.218 191.441 202.487 190.532 202.361L190.531 202.361C189.683 202.244 188.602 201.615 187.451 200.812C187.031 200.519 186.617 200.215 186.212 199.918C186.073 199.815 185.936 199.714 185.799 199.615C185.273 199.23 184.764 198.868 184.312 198.601M184.312 198.601C181.677 197.023 179.048 195.449 176.456 193.821C170.744 190.218 165.16 186.392 160.157 181.87L160.156 181.869C158.656 180.515 154.165 176.239 151.291 171.936C149.845 169.771 148.865 167.681 148.805 165.991C148.776 165.164 148.968 164.453 149.417 163.865C149.869 163.273 150.62 162.757 151.794 162.393M184.312 198.601C184.313 198.601 184.313 198.601 184.314 198.602L184.057 199.031M184.312 198.601C184.312 198.601 184.312 198.6 184.312 198.6L184.057 199.031M151.794 162.393C153.573 161.843 155.961 161.852 158.457 162.017C159.335 162.076 160.23 162.154 161.109 162.23C162.678 162.368 164.195 162.5 165.467 162.506C167.415 162.515 169.368 162.528 171.321 162.542L171.322 162.542L171.326 162.542C173.278 162.556 175.231 162.569 177.179 162.578H177.181C178.003 162.578 178.647 162.012 178.867 161.304M151.794 162.393L151.646 161.915M151.794 162.393C151.794 162.393 151.794 162.393 151.795 162.393L151.646 161.915M178.867 161.304C178.974 160.971 179.076 160.64 179.175 160.31M178.867 161.304C178.867 161.304 178.867 161.305 178.867 161.306L178.39 161.154M178.867 161.304C178.868 161.303 178.868 161.302 178.868 161.301L178.39 161.154M179.175 160.31L179.914 163.646L181.078 168.895L181.078 168.896C181.277 169.789 182.068 170.194 182.778 170.191C183.484 170.188 184.273 169.779 184.472 168.897L183.985 168.787L184.472 168.899C185.291 165.338 186.109 161.772 186.928 158.206L186.935 158.174L186.937 158.167C187.544 155.524 188.15 152.881 188.757 150.24M179.175 160.31L178.951 159.3M179.175 160.31C179.274 159.978 179.371 159.647 179.466 159.316L181.566 168.787L178.951 159.3M188.757 150.24C189.169 153.836 189.506 157.442 189.843 161.054C189.943 162.125 190.044 163.197 190.146 164.27C190.683 169.906 191.275 175.55 192.207 181.162M188.757 150.24C188.868 149.756 188.979 149.272 189.09 148.789C189.579 152.854 189.96 156.932 190.341 161.011C190.968 167.716 191.595 174.424 192.701 181.08M188.757 150.24C188.701 149.747 188.643 149.254 188.584 148.762L200.035 158.948C199.987 159.198 199.939 159.447 199.89 159.696M192.207 181.162C192.29 181.666 192.536 182.056 192.911 182.285C193.274 182.506 193.696 182.537 194.073 182.458C194.802 182.306 195.556 181.697 195.669 180.798L195.669 180.798C196.144 177.015 196.916 173.285 197.745 169.548C197.928 168.727 198.113 167.906 198.298 167.083C198.85 164.631 199.405 162.171 199.89 159.696M192.207 181.162C192.207 181.162 192.207 181.161 192.207 181.161L192.701 181.08M192.207 181.162C192.207 181.162 192.207 181.162 192.207 181.162L192.701 181.08M199.89 159.696C199.755 159.48 199.629 159.256 199.511 159.027C199.001 161.686 198.406 164.327 197.812 166.967C196.784 171.53 195.757 176.089 195.173 180.736C195.011 182.023 192.953 182.621 192.701 181.08M178.951 159.3C178.772 159.917 178.589 160.531 178.39 161.154M178.951 159.3L176.189 194.244C170.468 190.636 164.856 186.792 159.821 182.241C156.808 179.521 141.703 164.998 151.646 161.915M178.39 161.154C178.228 161.679 177.759 162.078 177.181 162.078C175.232 162.069 173.279 162.056 171.325 162.042C169.372 162.028 167.419 162.015 165.47 162.006C164.216 162 162.738 161.871 161.185 161.735C157.866 161.445 154.204 161.125 151.646 161.915" fill="#FF9533" stroke="#FF9533"/>
<defs>
<filter id="filter0_d_189:25970" x="0" y="0" width="398" height="398" filterUnits="userSpaceOnUse" color-interpolation-filters="sRGB">
<feFlood flood-opacity="0" result="BackgroundImageFix"/>
<feColorMatrix in="SourceAlpha" type="matrix" values="0 0 0 0 0 0 0 0 0 0 0 0 0 0 0 0 0 0 127 0" result="hardAlpha"/>
<feOffset dx="8" dy="9"/>
<feGaussianBlur stdDeviation="29.5"/>
<feComposite in2="hardAlpha" operator="out"/>
<feColorMatrix type="matrix" values="0 0 0 0 0 0 0 0 0 0 0 0 0 0 0 0 0 0 0.1 0"/>
<feBlend mode="normal" in2="BackgroundImageFix" result="effect1_dropShadow_189:25970"/>
<feBlend mode="normal" in="SourceGraphic" in2="effect1_dropShadow_189:25970" result="shape"/>
</filter>
</defs>
</svg>
