<svg width="398" height="398" viewBox="0 0 398 398" fill="none" xmlns="http://www.w3.org/2000/svg">
<g filter="url(#filter0_d_192:6262)">
<path d="M72.7662 242.548C43.7446 213.527 43.7446 166.473 72.7662 137.452L138.452 71.7662C167.473 42.7446 214.527 42.7446 243.548 71.7662L309.234 137.452C338.255 166.473 338.255 213.527 309.234 242.548L243.548 308.234C214.527 337.255 167.473 337.255 138.452 308.234L72.7662 242.548Z" fill="white"/>
<path d="M73.1198 242.195C44.2934 213.368 44.2934 166.632 73.1198 137.805L138.805 72.1198C167.632 43.2934 214.368 43.2934 243.195 72.1198L308.88 137.805C337.707 166.632 337.707 213.368 308.88 242.195L243.195 307.88C214.368 336.707 167.632 336.707 138.805 307.88L73.1198 242.195Z" stroke="#F7F7F7"/>
</g>
<path opacity="0.5" d="M147.677 220.016C134.621 220.016 124.877 215.744 118.445 207.2C112.109 198.656 108.941 187.376 108.941 173.36V161.552C108.941 147.536 112.109 136.304 118.445 127.856C124.877 119.408 134.621 115.184 147.677 115.184C160.829 115.184 170.573 119.456 176.909 128C183.341 136.448 186.557 147.632 186.557 161.552V173.36C186.557 187.376 183.341 198.656 176.909 207.2C170.477 215.744 160.733 220.016 147.677 220.016ZM147.677 202.736C153.437 202.736 157.613 200.336 160.205 195.536C162.893 190.64 164.237 183.488 164.237 174.08V160.688C164.237 151.376 162.893 144.368 160.205 139.664C157.613 134.864 153.437 132.464 147.677 132.464C142.013 132.464 137.837 134.864 135.149 139.664C132.557 144.368 131.261 151.376 131.261 160.688V174.08C131.261 183.488 132.557 190.64 135.149 195.536C137.837 200.336 142.013 202.736 147.677 202.736ZM200.815 201.008L216.799 187.04L223.567 181.424C229.903 176.24 234.847 172.016 238.399 168.752C241.951 165.488 244.879 162.032 247.183 158.384C249.487 154.64 250.639 150.848 250.639 147.008C250.639 142.88 249.391 139.376 246.895 136.496C244.399 133.616 240.607 132.176 235.519 132.176C229.279 132.176 225.103 134 222.991 137.648C220.975 141.2 219.967 144.992 219.967 149.024V150.752H200.383C200.383 143.552 201.775 137.264 204.559 131.888C207.439 126.512 211.471 122.384 216.655 119.504C221.935 116.528 228.127 115.04 235.231 115.04C242.431 115.04 248.575 116.432 253.663 119.216C258.847 121.904 262.735 125.6 265.327 130.304C268.015 135.008 269.359 140.192 269.359 145.856C269.359 151.52 268.159 156.704 265.759 161.408C263.359 166.016 260.479 170.048 257.119 173.504C253.759 176.864 249.439 180.752 244.159 185.168L241.855 187.184L227.023 199.856V200.576H270.223V218H200.959L200.815 201.008Z" fill="#FFD5AE"/>
<path d="M232.755 277.876L229.855 249.246C229.81 243.566 226.434 238.57 221.404 236.836L198.589 228.487L198.159 219.932L199.065 219.453C201.308 218.267 202.826 216.031 203.143 213.522L204.367 203.918C204.48 202.982 203.823 202.116 202.894 202.002C201.965 201.887 201.104 202.549 200.991 203.484L199.767 213.088C199.586 214.503 198.725 215.757 197.457 216.442L191.498 219.636C190.66 220.069 190.365 221.118 190.796 221.94C191.09 222.51 191.679 222.852 192.291 222.852C192.563 222.852 192.835 222.784 193.084 222.647L194.828 221.712L195.236 229.81C195.282 230.494 195.712 231.087 196.346 231.338L198.952 232.297L190.433 259.968L181.484 232.251L184.021 231.316C184.656 231.088 185.109 230.494 185.132 229.81L185.585 221.962L186.853 222.647C187.103 222.784 187.375 222.852 187.646 222.852C188.258 222.852 188.847 222.533 189.142 221.94C189.572 221.096 189.278 220.069 188.439 219.636L182.481 216.442C181.212 215.757 180.351 214.503 180.17 213.088L178.946 203.484C178.833 202.549 177.972 201.887 177.043 202.002C176.114 202.116 175.457 202.982 175.571 203.918L176.794 213.522C177.111 216.054 178.629 218.267 180.872 219.453L182.254 220.183L181.778 228.487L158.896 236.836C153.866 238.57 150.467 243.566 150.445 249.246L147.59 277.876C147.5 278.811 148.179 279.655 149.108 279.747C149.176 279.747 149.221 279.747 149.289 279.747C150.15 279.747 150.898 279.085 150.989 278.218L153.889 249.497C153.889 249.429 153.889 249.383 153.889 249.315C153.889 245.049 156.381 241.308 160.074 240.053H160.096L169.34 236.677L166.078 241.49C165.738 242.015 165.692 242.676 165.964 243.247C166.259 243.794 166.825 244.159 167.437 244.159L172.988 244.25L170.496 247.421C170.02 248.037 169.997 248.927 170.496 249.543L181.665 263.892C182.005 264.325 182.503 264.553 183.002 264.553C183.364 264.553 183.727 264.439 184.044 264.188C184.792 263.595 184.905 262.523 184.339 261.793L174.007 248.493L177.814 243.657C178.221 243.155 178.289 242.448 178.017 241.855C177.746 241.262 177.157 240.897 176.5 240.874L170.677 240.783L174.8 234.669L178.312 233.392L188.689 265.42C188.689 265.466 188.689 265.534 188.689 265.58V278.127C188.689 279.062 189.459 279.838 190.388 279.838C191.317 279.838 192.087 279.062 192.087 278.127V266.242C192.11 266.196 192.132 266.128 192.155 266.082L202.169 233.437L205.024 234.487L209.283 240.806L203.46 240.897C202.803 240.897 202.237 241.285 201.942 241.878C201.671 242.471 201.739 243.155 202.146 243.68L205.953 248.493L195.621 261.77C195.032 262.523 195.168 263.595 195.916 264.166C196.233 264.417 196.596 264.531 196.958 264.531C197.457 264.531 197.955 264.303 198.295 263.869L209.464 249.52C209.94 248.904 209.94 248.014 209.464 247.398L206.972 244.228L212.523 244.136C213.157 244.136 213.724 243.771 213.996 243.224C214.29 242.676 214.245 241.992 213.882 241.467L210.507 236.448L220.271 240.03H220.294C223.987 241.308 226.479 245.026 226.479 249.292C226.479 249.36 226.479 249.406 226.479 249.474L229.379 278.195C229.47 279.085 230.217 279.724 231.078 279.724C231.146 279.724 231.192 279.724 231.26 279.724C232.166 279.655 232.846 278.834 232.755 277.876Z" fill="#FF9533"/>
<path d="M164.084 232.411C165.013 232.525 165.874 231.863 165.987 230.928L169.793 200.542L171.311 189.158C172.58 179.486 180.759 172.208 190.365 172.208C199.949 172.208 208.128 179.463 209.419 189.113L210.937 200.587L214.29 230.905C214.381 231.772 215.128 232.433 215.967 232.433C216.035 232.433 216.103 232.433 216.148 232.433C217.077 232.319 217.757 231.475 217.643 230.54L214.29 200.199C214.29 200.177 214.29 200.177 214.29 200.154L212.749 188.656C211.232 177.341 201.603 168.787 190.32 168.787C179.014 168.787 169.363 177.364 167.89 188.725L166.372 200.108L162.543 230.517C162.498 231.43 163.155 232.274 164.084 232.411Z" fill="#FF9533"/>
<path d="M198.431 182.246C197.638 181.767 196.573 182.018 196.098 182.816C193.243 187.539 188.78 192.808 177.316 196.093C176.409 196.344 175.888 197.302 176.137 198.215C176.341 198.968 177.021 199.47 177.769 199.47C177.927 199.47 178.086 199.447 178.244 199.401C186.446 197.051 191.453 193.652 194.783 190.185C195.644 191.941 197.276 194.405 200.085 196.162C200.357 196.344 200.674 196.413 200.991 196.413C201.558 196.413 202.124 196.116 202.441 195.614C202.94 194.816 202.691 193.766 201.898 193.265C198.726 191.28 197.525 188.018 197.276 187.265C197.933 186.352 198.522 185.485 199.02 184.619C199.496 183.797 199.247 182.748 198.431 182.246Z" fill="#FF9533"/>
<path d="M220.996 267.542H216.782V263.299C216.782 262.364 216.012 261.588 215.083 261.588C214.154 261.588 213.384 262.364 213.384 263.299V267.542H209.17C208.241 267.542 207.471 268.318 207.471 269.253C207.471 270.188 208.241 270.964 209.17 270.964H213.384V275.207C213.384 276.142 214.154 276.918 215.083 276.918C216.012 276.918 216.782 276.142 216.782 275.207V270.964H220.996C221.925 270.964 222.696 270.188 222.696 269.253C222.696 268.318 221.925 267.542 220.996 267.542Z" fill="#FF9533"/>
<defs>
<filter id="filter0_d_192:6262" x="0" y="0" width="398" height="398" filterUnits="userSpaceOnUse" color-interpolation-filters="sRGB">
<feFlood flood-opacity="0" result="BackgroundImageFix"/>
<feColorMatrix in="SourceAlpha" type="matrix" values="0 0 0 0 0 0 0 0 0 0 0 0 0 0 0 0 0 0 127 0" result="hardAlpha"/>
<feOffset dx="8" dy="9"/>
<feGaussianBlur stdDeviation="29.5"/>
<feComposite in2="hardAlpha" operator="out"/>
<feColorMatrix type="matrix" values="0 0 0 0 0 0 0 0 0 0 0 0 0 0 0 0 0 0 0.1 0"/>
<feBlend mode="normal" in2="BackgroundImageFix" result="effect1_dropShadow_192:6262"/>
<feBlend mode="normal" in="SourceGraphic" in2="effect1_dropShadow_192:6262" result="shape"/>
</filter>
</defs>
</svg>
