<svg width="398" height="398" viewBox="0 0 398 398" fill="none" xmlns="http://www.w3.org/2000/svg">
<g filter="url(#filter0_d_189:25944)">
<path d="M72.7662 242.548C43.7446 213.527 43.7446 166.473 72.7662 137.452L138.452 71.7662C167.473 42.7446 214.527 42.7446 243.548 71.7662L309.234 137.452C338.255 166.473 338.255 213.527 309.234 242.548L243.548 308.234C214.527 337.255 167.473 337.255 138.452 308.234L72.7662 242.548Z" fill="white"/>
<path d="M73.1198 242.195C44.2934 213.368 44.2934 166.632 73.1198 137.805L138.805 72.1198C167.632 43.2934 214.368 43.2934 243.195 72.1198L308.88 137.805C337.707 166.632 337.707 213.368 308.88 242.195L243.195 307.88C214.368 336.707 167.632 336.707 138.805 307.88L73.1198 242.195Z" stroke="#F7F7F7"/>
</g>
<path opacity="0.5" d="M149.669 242.016C136.613 242.016 126.869 237.744 120.437 229.2C114.101 220.656 110.933 209.376 110.933 195.36V183.552C110.933 169.536 114.101 158.304 120.437 149.856C126.869 141.408 136.613 137.184 149.669 137.184C162.821 137.184 172.565 141.456 178.901 150C185.333 158.448 188.549 169.632 188.549 183.552V195.36C188.549 209.376 185.333 220.656 178.901 229.2C172.469 237.744 162.725 242.016 149.669 242.016ZM149.669 224.736C155.429 224.736 159.605 222.336 162.197 217.536C164.885 212.64 166.229 205.488 166.229 196.08V182.688C166.229 173.376 164.885 166.368 162.197 161.664C159.605 156.864 155.429 154.464 149.669 154.464C144.005 154.464 139.829 156.864 137.141 161.664C134.549 166.368 133.253 173.376 133.253 182.688V196.08C133.253 205.488 134.549 212.64 137.141 217.536C139.829 222.336 144.005 224.736 149.669 224.736ZM265.447 222.576V240H205.255V222.576H226.855V162.96H226.279L205.111 182.256V158.496L226.423 139.2H246.007V222.576H265.447Z" fill="#FFD5AE"/>
<mask id="mask0_189:25944" style="mask-type:alpha" maskUnits="userSpaceOnUse" x="77" y="105" width="195" height="196">
<g clip-path="url(#clip0_189:25944)">
<path d="M201.744 168.583C207.332 163.949 212.817 158.856 217.684 153.463C217.946 153.173 217.559 152.804 217.267 153.044C211.637 157.625 206.269 162.843 201.353 168.191C201.102 168.458 201.471 168.812 201.744 168.583Z" fill="#FF9533"/>
<path d="M168.125 197.792C170.934 196.381 173.371 193.382 175.653 191.255C178.025 189.044 180.907 186.868 182.843 184.257C183.135 183.86 182.566 183.33 182.178 183.59C179.476 185.385 177.152 188.167 174.825 190.424C172.589 192.593 169.48 194.864 167.931 197.597C167.859 197.723 168.004 197.853 168.125 197.792Z" fill="#FF9533"/>
<path d="M182.777 207.443C183.21 206.482 183.142 205.552 183.21 204.496C183.32 202.747 183.491 201.009 183.76 199.278C184.22 196.309 184.945 193.401 185.757 190.511C185.928 189.902 185.047 189.684 184.831 190.256C183.711 193.206 182.978 196.271 182.572 199.404C182.265 201.763 181.494 205.236 182.553 207.446C182.591 207.526 182.739 207.53 182.777 207.443Z" fill="#FF9533"/>
<path d="M157.583 184.935C160.836 184.737 164.078 184.322 167.293 183.8C170.66 183.254 174.225 182.751 177.414 181.513C177.93 181.314 177.926 180.369 177.27 180.449C174.039 180.842 170.869 181.787 167.677 182.416C164.29 183.083 160.885 183.62 157.476 184.177C157.051 184.245 157.15 184.962 157.583 184.935Z" fill="#FF9533"/>
<path d="M198.79 143.934C198.248 147.143 197.853 150.376 197.253 153.577C196.649 156.787 195.757 159.946 195.23 163.167C195.123 163.823 195.993 164.074 196.224 163.442C197.39 160.282 197.955 156.863 198.491 153.543C198.995 150.406 199.428 147.204 199.474 144.025C199.485 143.641 198.859 143.534 198.79 143.934Z" fill="#FF9533"/>
<path d="M220.868 171.229C218.64 170.825 216.123 171.435 213.857 171.477C211.283 171.522 208.694 171.435 206.124 171.282C205.646 171.256 205.524 172.056 206.01 172.136C208.622 172.574 211.207 172.754 213.857 172.643C216.078 172.552 218.921 172.59 220.906 171.511C221.016 171.454 221.001 171.256 220.868 171.229Z" fill="#FF9533"/>
<path d="M186.081 166.902C185.439 165.889 184.744 164.924 183.996 163.99C183.56 163.445 183.093 162.919 182.653 162.374C182.44 162.096 182.224 161.818 182.011 161.54C181.252 160.587 181.567 159.599 182.949 158.574C183.662 158.513 183.659 157.381 182.949 157.454C181.275 157.625 180.056 158.887 180.443 160.651C180.679 161.726 181.457 162.565 182.155 163.373C183.302 164.699 184.486 165.969 185.803 167.12C185.948 167.249 186.194 167.085 186.081 166.902Z" fill="#FF9533"/>
<path d="M141.609 178.181C140.641 176.862 139.643 175.604 138.481 174.449C137.593 173.569 136.412 172.166 135.19 171.739C133.425 171.126 131.272 173.283 130.885 174.846C130.748 175.402 131.439 175.623 131.75 175.212C132.324 174.461 132.851 173.382 133.789 173.005C135.194 172.441 136.029 173.699 136.947 174.529C138.39 175.833 139.851 177.114 141.283 178.429C141.446 178.585 141.757 178.383 141.609 178.181Z" fill="#FF9533"/>
<path d="M237.234 225.932C237.238 225.917 237.242 225.898 237.246 225.883C237.094 225.967 236.946 226.054 236.794 226.138C237.762 226.268 237.952 228.478 237.826 229.176C237.473 231.12 235.435 231.932 233.996 230.445C232.891 229.306 233.074 227.503 234.44 226.656C235.997 225.692 237.637 227 237.766 228.635C237.842 229.58 239.178 229.591 239.239 228.635C239.402 225.86 236.213 223.946 233.821 225.254C231.278 226.645 231.081 230.095 233.282 231.897C235.78 233.94 238.958 232.298 239.371 229.267C239.531 228.09 239.28 226.656 238.354 225.829C237.936 225.456 236.798 224.808 236.547 225.692C236.486 225.898 236.619 226.07 236.801 226.146C236.817 226.153 236.832 226.157 236.847 226.165C236.999 226.222 237.196 226.085 237.234 225.932Z" fill="#FF9533"/>
<path d="M212.654 259.711C212.658 259.696 212.662 259.677 212.666 259.662C212.514 259.745 212.366 259.833 212.214 259.917C213.182 260.047 213.372 262.257 213.246 262.955C212.893 264.899 210.855 265.711 209.416 264.224C208.311 263.084 208.493 261.281 209.86 260.435C211.417 259.471 213.057 260.778 213.186 262.414C213.262 263.359 214.602 263.37 214.659 262.414C214.826 259.639 211.633 257.725 209.241 259.033C206.698 260.424 206.501 263.873 208.702 265.676C211.2 267.719 214.378 266.076 214.791 263.046C214.951 261.868 214.7 260.435 213.774 259.608C213.356 259.235 212.218 258.587 211.967 259.471C211.906 259.681 212.039 259.848 212.221 259.925C212.237 259.932 212.252 259.936 212.267 259.944C212.415 260.001 212.612 259.864 212.654 259.711Z" fill="#FF9533"/>
<path d="M261.659 258.724C261.663 258.709 261.667 258.689 261.67 258.674C261.519 258.758 261.371 258.846 261.219 258.93C262.187 259.059 262.376 261.27 262.251 261.967C261.898 263.911 259.86 264.723 258.421 263.237C257.316 262.097 257.498 260.294 258.865 259.448C260.421 258.484 262.061 259.791 262.19 261.426C262.266 262.371 263.603 262.383 263.663 261.426C263.827 258.651 260.638 256.738 258.246 258.045C255.703 259.437 255.505 262.886 257.707 264.689C260.205 266.732 263.382 265.089 263.796 262.059C263.956 260.881 263.705 259.448 262.779 258.621C262.361 258.247 261.222 257.599 260.972 258.484C260.911 258.689 261.044 258.861 261.226 258.937C261.241 258.945 261.257 258.949 261.272 258.956C261.424 259.013 261.621 258.876 261.659 258.724Z" fill="#FF9533"/>
<path d="M138.332 123.134C140.462 123.592 142.622 124.32 144.528 125.383C146.251 126.343 147.944 128.005 149.865 128.47C150.381 128.596 150.651 128.013 150.351 127.636C149.11 126.073 146.672 124.838 144.877 123.965C142.834 122.974 140.777 122.65 138.552 122.341C138.044 122.269 137.804 123.02 138.332 123.134Z" fill="#FF9533"/>
<path d="M135.121 115.942C136.396 116.43 137.653 116.677 138.989 116.902C140.295 117.123 141.479 117.722 142.762 117.966C143.055 118.023 143.305 117.672 143.07 117.44C141.175 115.576 137.675 116.007 135.276 115.378C134.904 115.282 134.775 115.808 135.121 115.942Z" fill="#FF9533"/>
<path d="M231.122 218.054C223.951 210.564 216.947 202.891 209.898 195.283C209.742 195.116 209.461 195.04 209.241 195.108C206.998 195.836 204.746 196.271 202.609 195.032C201.136 194.178 199.299 192.688 198.699 191.037C198.27 189.86 198.156 188.667 197.579 187.531C197.268 186.917 196.194 187.348 196.452 188.007C197.295 190.176 197.374 192.154 199.071 193.892C200.521 195.379 202.476 196.972 204.61 197.193C205.566 197.292 206.561 197.14 207.499 196.957C207.939 196.869 208.406 196.797 208.831 196.64C209.044 196.564 209.928 196.454 209.252 196.335C208.687 196.236 209.059 196.244 209.18 196.492C209.313 196.766 209.708 197.06 209.913 197.277C214.529 202.24 219.149 207.195 223.86 212.066C226.028 214.307 228.176 216.598 230.545 218.629C230.94 218.976 231.494 218.443 231.122 218.054Z" fill="#FF9533"/>
<path d="M208.589 264.357C206.695 261.777 204.478 259.448 202.314 257.1C201.198 255.888 200.059 254.695 198.92 253.506C198.184 252.736 197.432 251.68 196.566 251.059C196.418 250.956 196.331 250.765 196.183 250.662C196.946 251.184 196.099 251.447 196.475 250.956C196.642 250.738 196.692 250.312 196.775 250.045C197.216 248.589 197.629 246.908 197.25 245.391C196.76 243.439 195.397 241.579 193.989 240.192C192.516 238.743 190.644 238.549 188.818 237.752C188.108 237.444 187.497 238.397 188.196 238.823C189.365 239.532 190.701 239.631 191.889 240.257C193.381 241.042 194.619 242.818 195.371 244.293C196.487 246.492 195.902 248.753 195.059 250.948C194.976 251.169 195.078 251.444 195.23 251.604C199.505 255.991 203.707 260.439 207.955 264.853C208.262 265.181 208.87 264.742 208.589 264.357Z" fill="#FF9533"/>
<path d="M243.664 267.727C243.657 267.99 243.649 268.253 243.642 268.516C243.642 268.531 243.664 268.531 243.664 268.516C243.672 268.253 243.68 267.99 243.687 267.727C243.691 267.712 243.668 267.712 243.664 267.727Z" fill="#FF9533"/>
<path d="M243.396 271.561C242.705 256.905 241.354 242.128 238.75 227.682C238.64 227.072 237.713 227.331 237.824 227.937C240.447 242.399 241.103 257.062 243.081 271.603C243.104 271.782 243.404 271.74 243.396 271.561Z" fill="#FF9533"/>
<path d="M263.514 259.185C261.134 256.315 258.496 253.681 255.873 251.032C254.476 249.622 253.063 248.234 251.663 246.828C250.569 245.73 249.529 244.385 248.254 243.5C247.916 243.264 247.479 243.725 247.692 244.064C248.478 245.299 249.753 246.321 250.782 247.35C252.243 248.814 253.705 250.274 255.189 251.714C257.858 254.314 260.538 256.894 263.309 259.383C263.45 259.513 263.632 259.326 263.514 259.185Z" fill="#FF9533"/>
<path d="M246.644 287.211C245.255 285.081 243.44 281.993 241.368 280.469C240.32 279.699 239.029 279.634 237.78 279.459C236.156 279.23 234.523 279.024 232.891 278.853C226.073 278.128 218.788 277.591 211.955 278.365C211.268 278.441 211.226 279.462 211.955 279.474C218.101 279.565 224.179 279.283 230.328 279.764C231.794 279.878 233.259 280.007 234.721 280.16C236.243 280.32 238.027 280.297 239.473 280.755C242.267 281.643 244.34 285.412 246.105 287.631C246.348 287.939 246.857 287.539 246.644 287.211Z" fill="#FF9533"/>
<path d="M224.483 227.637C225.492 235.046 226.282 243.054 227.159 250.681C228.089 258.758 228.381 270.917 237.796 273.623C243.323 275.213 249.446 271.142 250.756 265.6C251.269 263.427 250.532 260.641 250.338 258.461C249.477 248.795 248.976 238.812 246.941 229.306C245.65 223.28 241.805 216.831 234.88 216.854C229.038 216.873 225.432 222.579 224.669 227.759C224.35 229.92 227.618 230.884 227.987 228.677C228.26 227.023 228.499 225.403 229.478 223.996C230.894 221.957 233.039 220.074 235.659 220.444C241.387 221.252 243.111 227.568 243.919 232.409C245.282 240.554 245.931 248.844 246.675 257.066C246.892 259.467 247.472 262.139 247.332 264.556C247.245 266.076 245.908 267.681 244.8 268.668C242.689 270.551 239.861 271.051 237.34 269.671C232.895 267.239 231.828 261.007 231.274 256.441C230.989 254.089 230.724 251.733 230.446 249.382C229.558 241.842 228.731 234.284 227.565 226.783C227.25 224.728 224.206 225.62 224.483 227.637Z" fill="#FF9533"/>
<path d="M185.952 252.354C189.498 256.113 193.047 259.863 196.623 263.591C201.908 269.103 207.799 277.103 216.379 273.215C220.68 271.264 223.147 266.896 222.798 262.177C222.68 260.603 222.377 258.926 221.355 257.683C220.539 256.692 219.689 255.728 218.842 254.76C215.612 251.051 212.313 247.396 208.881 243.87C205.313 240.199 201.444 235.995 196.354 234.573C192.155 233.399 186.825 234.669 184.517 238.637C182.152 242.696 183.06 247.476 185.151 251.337C186.214 253.296 189.133 251.562 188.124 249.595C186.681 246.79 185.743 243.134 187.683 240.23C189.748 237.139 194.292 237.295 197.261 238.724C201.19 240.615 204.284 244.213 207.264 247.308C210.168 250.33 212.985 253.441 215.748 256.593C216.603 257.565 217.449 258.541 218.288 259.524C218.489 259.757 218.732 259.989 218.903 260.244C218.941 260.302 219.002 260.344 219.036 260.401C218.546 259.562 219.104 261.11 219.131 261.232C220.049 265.459 217.677 269.449 213.512 270.543C209.067 271.713 205.711 268.207 202.929 265.245C201.384 263.602 199.831 261.967 198.267 260.344C194.942 256.898 191.578 253.49 188.215 250.079C186.761 248.604 184.532 250.853 185.952 252.354Z" fill="#FF9533"/>
<path d="M243.873 221.252C240.927 217.196 237.526 213.53 234.143 209.84C228.73 203.932 223.252 198.085 217.774 192.238C216.499 190.877 215.219 189.521 213.948 188.156C213.128 188.979 212.312 189.799 211.492 190.622C211.492 190.622 211.492 190.622 211.495 190.626C213.04 192.253 215.489 189.787 213.952 188.16C211.355 185.412 208.72 183.125 205.023 182.035C201.549 181.013 197.825 181.977 195.449 184.767C192.852 187.821 192.249 192.128 193.752 195.802C194.382 197.346 195.453 198.588 196.508 199.861C203.14 207.877 210.493 215.348 217.698 222.845C219.832 225.064 221.984 227.259 224.129 229.466C225.678 231.059 228.107 228.616 226.562 227.023C221.954 222.273 217.421 217.44 212.881 212.623C209.499 209.032 206.128 205.422 202.836 201.744C200.798 199.469 197.97 197.018 196.929 194.262C195.517 190.527 197.579 185.412 201.929 185.126C205.839 184.87 209.032 188.03 211.495 190.618C212.315 189.795 213.132 188.975 213.952 188.152C213.952 188.152 213.952 188.152 213.948 188.148C212.395 186.525 209.962 188.979 211.492 190.614C220.306 200.033 228.988 209.718 238.304 218.637C239.652 219.926 241.041 221.141 242.476 222.323C243.19 222.921 244.518 222.14 243.873 221.252Z" fill="#FF9533"/>
<path d="M245.909 291.442C248.388 289.883 250.521 287.928 252.7 285.98C256.386 282.687 259.977 279.287 263.569 275.887C266.666 272.952 269.745 270.338 271.241 266.16C273.814 258.983 268.747 253.163 264.089 248.318C258.793 242.814 253.402 237.398 248.061 231.936C246.501 230.343 244.132 232.748 245.628 234.379C249.872 238.995 254.317 243.432 258.709 247.906C262.851 252.126 270.045 257.748 268.097 264.506C266.985 268.363 263.903 270.787 261.131 273.44C257.734 276.692 254.329 279.931 250.992 283.244C248.756 285.462 246.524 287.646 244.69 290.219C244.166 290.958 245.184 291.896 245.909 291.442Z" fill="#FF9533"/>
<path d="M263.325 272.495C260.391 274.454 257.825 276.852 255.22 279.226C251.318 282.794 247.484 286.434 243.634 290.059C242.336 291.279 241.106 292.54 239.523 293.394C236.095 295.243 232.622 295.17 229.406 292.982C226.13 290.753 223.537 287.528 220.888 284.616C218.762 282.283 216.625 279.958 214.487 277.633C210.103 272.865 205.745 268.062 201.246 263.401C199.697 261.796 197.321 264.209 198.813 265.844C202.863 270.281 206.941 274.694 211.01 279.112C213.318 281.616 215.63 284.124 217.927 286.64C220.618 289.582 223.222 292.67 226.385 295.121C229.384 297.45 232.811 298.765 236.634 298.078C239.61 297.541 242.287 296.047 244.489 294C248.144 290.6 251.728 287.124 255.289 283.625C258.512 280.457 261.852 277.366 264.54 273.719C265.075 272.994 264.039 272.019 263.325 272.495Z" fill="#FF9533"/>
<path d="M80.8075 106.775C83.2978 108.235 85.8868 109.477 88.529 110.643C92.3403 112.324 96.482 114.23 100.692 114.531C102.962 114.691 105.24 113.826 107.476 113.525C110.778 113.075 114.119 112.938 117.448 112.854C120.823 112.77 124.202 112.774 127.576 112.683C130.192 112.614 133.153 112.027 135.674 112.95C138.259 113.895 140.104 116.41 141.615 118.594C143.243 120.946 144.728 123.397 146.238 125.821C147.256 127.449 148.205 129.377 149.682 130.639C151.367 132.08 153.512 132.88 155.528 133.734C159.897 135.575 163.629 137.561 166.848 141.125C169.114 143.633 171.426 146.106 173.715 148.595C176.627 151.759 179.539 154.927 182.462 158.079C183.563 159.268 184.937 160.469 185.734 161.886C187.594 165.187 184.792 168.919 181.065 167.604C177.914 166.495 175.051 163.194 172.835 160.789C170.542 158.3 168.435 155.643 166.206 153.097C164.13 150.722 161.81 147.887 159.115 146.19C157.908 145.432 156.435 145.115 155.057 144.849C150.722 144.014 146.254 143.751 141.85 143.591C139.591 143.511 135.822 142.756 134.113 144.658C132.77 146.156 132.162 148.428 131.676 150.33C131.118 152.525 130.667 154.896 130.727 157.175C130.834 161.174 134.846 163.998 137.378 166.681C139.022 168.427 141.433 170.375 142.416 172.605C143.649 175.402 141.941 179.393 138.502 179.107C135.146 178.825 132.056 175.265 129.843 173.012C127.364 170.489 125.094 167.772 122.808 165.073C118.318 159.767 113.663 154.583 107.7 150.905C102.279 147.563 96.2048 145.817 90.112 144.182C86.7448 143.278 83.3927 142.352 80.0901 141.228C77.8275 140.458 76.8633 144.041 79.1068 144.811C85.5907 147.037 92.3669 148.321 98.7862 150.722C105.635 153.284 111.238 157.549 116.184 162.893C121.112 168.221 125.451 174.156 131.065 178.81C133.48 180.811 136.262 182.785 139.561 182.439C142.598 182.122 145.168 179.656 145.912 176.721C147.336 171.118 142.226 167.017 138.828 163.411C137.393 161.89 135.279 160.255 134.258 158.406C133.62 157.252 134.167 154.724 134.425 153.345C134.649 152.148 134.933 150.962 135.298 149.804C135.598 148.847 136.243 147.936 136.509 147.006C136.649 146.518 136.786 146.88 136.441 146.895C135.989 146.911 136.315 146.884 136.543 146.899C137.169 146.941 137.834 146.861 138.464 146.861C142.837 146.861 147.248 147.09 151.587 147.627C153.288 147.837 155.197 148.02 156.799 148.687C159.199 149.686 161.378 152.575 163.113 154.488C167.748 159.611 171.832 165.18 177.572 169.155C180.119 170.916 183.342 171.606 186.152 169.956C188.554 168.545 189.841 165.763 189.352 163.019C188.665 159.184 184.72 156.051 182.181 153.299C179.03 149.884 175.887 146.465 172.74 143.046C170.8 140.938 168.928 138.56 166.791 136.646C162.627 132.915 157.278 131.832 152.624 129.008C150.836 127.921 149.936 126.004 148.854 124.274C147.301 121.789 145.787 119.277 144.109 116.875C142.526 114.608 140.726 112.248 138.293 110.846C136.141 109.603 133.726 109.389 131.293 109.527C124.452 109.904 117.581 109.721 110.752 110.323C107.707 110.594 104.837 111.349 101.846 111.829C100.088 112.111 98.1181 111.528 96.4364 111.067C92.0708 109.862 87.933 108.105 83.7192 106.455C82.9258 106.142 82.1286 105.837 81.339 105.513C80.6063 105.208 80.1546 106.39 80.8075 106.775Z" fill="#FF9533"/>
<path d="M230.09 265.622C227.474 264.769 224.764 264.224 222.144 263.385C220.276 262.787 219.479 265.729 221.336 266.324C224.046 267.193 226.908 267.967 229.771 267.986C231.156 267.997 231.357 266.038 230.09 265.622Z" fill="#FF9533"/>
<path d="M268.347 264.918C266.127 267.998 262.748 271.641 258.519 270.631C255.045 269.8 252.601 266.012 249.993 263.824C248.767 262.795 247.089 264.403 248.216 265.608C251.113 268.71 255.114 273.105 259.741 272.842C264.198 272.591 267.277 269.023 268.586 265.021C268.636 264.868 268.427 264.803 268.347 264.918Z" fill="#FF9533"/>
<path d="M243.138 292.216C245.021 295.14 247.31 297.613 249.736 300.087C250.928 301.303 252.811 299.409 251.6 298.216C249.128 295.788 246.657 293.493 243.738 291.614C243.373 291.378 242.899 291.85 243.138 292.216Z" fill="#FF9533"/>
<path d="M263.31 272.868C265.117 275.841 267.357 278.376 269.718 280.911C270.876 282.153 272.763 280.263 271.582 279.039C269.179 276.554 266.772 274.214 263.91 272.262C263.542 272.011 263.086 272.502 263.31 272.868Z" fill="#FF9533"/>
<circle cx="236" cy="229" r="5" fill="#C4C4C4"/>
<circle cx="211" cy="263" r="5" fill="#C4C4C4"/>
<circle cx="260" cy="261" r="5" fill="#C4C4C4"/>
</g>
</mask>
<g mask="url(#mask0_189:25944)">
<path d="M72.7662 242.548C43.7446 213.527 43.7446 166.473 72.7662 137.452L138.452 71.7662C167.473 42.7446 214.527 42.7446 243.548 71.7662L309.234 137.452C338.255 166.473 338.255 213.527 309.234 242.548L243.548 308.234C214.527 337.255 167.473 337.255 138.452 308.234L72.7662 242.548Z" fill="#FF9533"/>
</g>
<defs>
<filter id="filter0_d_189:25944" x="0" y="0" width="398" height="398" filterUnits="userSpaceOnUse" color-interpolation-filters="sRGB">
<feFlood flood-opacity="0" result="BackgroundImageFix"/>
<feColorMatrix in="SourceAlpha" type="matrix" values="0 0 0 0 0 0 0 0 0 0 0 0 0 0 0 0 0 0 127 0" result="hardAlpha"/>
<feOffset dx="8" dy="9"/>
<feGaussianBlur stdDeviation="29.5"/>
<feComposite in2="hardAlpha" operator="out"/>
<feColorMatrix type="matrix" values="0 0 0 0 0 0 0 0 0 0 0 0 0 0 0 0 0 0 0.1 0"/>
<feBlend mode="normal" in2="BackgroundImageFix" result="effect1_dropShadow_189:25944"/>
<feBlend mode="normal" in="SourceGraphic" in2="effect1_dropShadow_189:25944" result="shape"/>
</filter>
<clipPath id="clip0_189:25944">
<rect width="194.121" height="195.016" fill="white" transform="translate(77.8369 105.463)"/>
</clipPath>
</defs>
</svg>
