<svg width="39" height="40" viewBox="0 0 39 40" fill="none" xmlns="http://www.w3.org/2000/svg">
<g clip-path="url(#clip0_732:2099)">
<path fill-rule="evenodd" clip-rule="evenodd" d="M0 20.4311C0 30.1259 7.04113 38.1875 16.25 39.8223V25.7384H11.375V20.3223H16.25V15.9884C16.25 11.1134 19.3911 8.40614 23.8339 8.40614C25.2411 8.40614 26.7589 8.62227 28.1661 8.83839V13.8223H25.675C23.2911 13.8223 22.75 15.0134 22.75 16.5311V20.3223H27.95L27.0839 25.7384H22.75V39.8223C31.9589 38.1875 39 30.1275 39 20.4311C39 9.64602 30.225 0.822266 19.5 0.822266C8.775 0.822266 0 9.64602 0 20.4311Z" fill="white"/>
</g>
<defs>
<clipPath id="clip0_732:2099">
<rect width="39" height="39" fill="white" transform="translate(0 0.822266)"/>
</clipPath>
</defs>
</svg>
