<svg width="24" height="28" viewBox="0 0 24 28" fill="none" xmlns="http://www.w3.org/2000/svg">
<g filter="url(#filter0_d_339:2426)">
<path fill-rule="evenodd" clip-rule="evenodd" d="M11.2947 4.70532C11.6842 4.31578 12.3158 4.31578 12.7053 4.70532C13.0946 5.0946 13.0949 5.72568 12.7059 6.11531L7.83 11H19C19.5523 11 20 11.4477 20 12C20 12.5523 19.5523 13 19 13H7.83L12.7059 17.8847C13.0949 18.2743 13.0946 18.9054 12.7053 19.2947C12.3158 19.6842 11.6842 19.6842 11.2947 19.2947L4 12L11.2947 4.70532Z" fill="#C2D1D9"/>
<mask id="mask0_339:2426" style="mask-type:alpha" maskUnits="userSpaceOnUse" x="4" y="4" width="16" height="16">
<path fill-rule="evenodd" clip-rule="evenodd" d="M11.2947 4.70532C11.6842 4.31578 12.3158 4.31578 12.7053 4.70532C13.0946 5.0946 13.0949 5.72568 12.7059 6.11531L7.83 11H19C19.5523 11 20 11.4477 20 12C20 12.5523 19.5523 13 19 13H7.83L12.7059 17.8847C13.0949 18.2743 13.0946 18.9054 12.7053 19.2947C12.3158 19.6842 11.6842 19.6842 11.2947 19.2947L4 12L11.2947 4.70532Z" fill="white"/>
</mask>
<g mask="url(#mask0_339:2426)">
<rect width="24" height="24" fill="#424B5A"/>
</g>
</g>
<defs>
<filter id="filter0_d_339:2426" x="-4" y="0" width="32" height="32" filterUnits="userSpaceOnUse" color-interpolation-filters="sRGB">
<feFlood flood-opacity="0" result="BackgroundImageFix"/>
<feColorMatrix in="SourceAlpha" type="matrix" values="0 0 0 0 0 0 0 0 0 0 0 0 0 0 0 0 0 0 127 0" result="hardAlpha"/>
<feOffset dy="4"/>
<feGaussianBlur stdDeviation="2"/>
<feComposite in2="hardAlpha" operator="out"/>
<feColorMatrix type="matrix" values="0 0 0 0 0 0 0 0 0 0 0 0 0 0 0 0 0 0 0.25 0"/>
<feBlend mode="normal" in2="BackgroundImageFix" result="effect1_dropShadow_339:2426"/>
<feBlend mode="normal" in="SourceGraphic" in2="effect1_dropShadow_339:2426" result="shape"/>
</filter>
</defs>
</svg>
