<svg width="255" height="58" viewBox="0 0 255 58" fill="none" xmlns="http://www.w3.org/2000/svg">
<g clip-path="url(#clip0_663:618)">
<path d="M13.5953 24.3267C15.9621 16.5855 24.1561 12.2284 31.8972 14.5953C33.1077 14.9653 34.2342 15.4778 35.2659 16.1084L32.9719 23.6132C32.1237 22.702 31.0314 21.9941 29.7546 21.6042C25.8846 20.4213 21.787 22.5993 20.6041 26.4693C19.4213 30.3393 21.5993 34.4369 25.4693 35.6197C29.3393 36.8026 33.4369 34.6246 34.6197 30.7546L41.3668 8.68422L37.975 5.29247C32.2517 -0.430823 22.9711 -0.430823 17.2477 5.29247L4.29247 18.2477C-1.43082 23.9711 -1.43082 33.2517 4.29247 38.9751L7.98689 42.6695L13.5953 24.3267Z" fill="#FF9533"/>
<path d="M50.9317 18.2487L47.2373 14.5542L41.63 32.8981C39.2631 40.6393 31.0691 44.9963 23.328 42.6295C20.7745 41.8487 18.5899 40.4349 16.8935 38.6115L13.8584 48.5405L17.2502 51.9323C22.9735 57.6556 32.2542 57.6556 37.9775 51.9323L50.9328 38.9771C56.6561 33.2527 56.6561 23.973 50.9317 18.2487Z" fill="#FF9533"/>
</g>
<path d="M91.1924 15.288V42H88.7444V38.256C87.9764 39.528 86.9564 40.5 85.6844 41.172C84.4364 41.844 83.0204 42.18 81.4364 42.18C79.6604 42.18 78.0524 41.772 76.6124 40.956C75.1724 40.14 74.0444 39 73.2284 37.536C72.4124 36.072 72.0044 34.404 72.0044 32.532C72.0044 30.66 72.4124 28.992 73.2284 27.528C74.0444 26.064 75.1724 24.936 76.6124 24.144C78.0524 23.328 79.6604 22.92 81.4364 22.92C82.9724 22.92 84.3524 23.244 85.5764 23.892C86.8244 24.516 87.8444 25.44 88.6364 26.664V15.288H91.1924ZM81.6524 39.912C82.9724 39.912 84.1604 39.612 85.2164 39.012C86.2964 38.388 87.1364 37.512 87.7364 36.384C88.3604 35.256 88.6724 33.972 88.6724 32.532C88.6724 31.092 88.3604 29.808 87.7364 28.68C87.1364 27.552 86.2964 26.688 85.2164 26.088C84.1604 25.464 82.9724 25.152 81.6524 25.152C80.3084 25.152 79.0964 25.464 78.0164 26.088C76.9604 26.688 76.1204 27.552 75.4964 28.68C74.8964 29.808 74.5964 31.092 74.5964 32.532C74.5964 33.972 74.8964 35.256 75.4964 36.384C76.1204 37.512 76.9604 38.388 78.0164 39.012C79.0964 39.612 80.3084 39.912 81.6524 39.912ZM107.851 42.18C106.027 42.18 104.383 41.772 102.919 40.956C101.455 40.116 100.303 38.964 99.4629 37.5C98.6229 36.036 98.2029 34.38 98.2029 32.532C98.2029 30.684 98.6229 29.028 99.4629 27.564C100.303 26.1 101.455 24.96 102.919 24.144C104.383 23.328 106.027 22.92 107.851 22.92C109.675 22.92 111.319 23.328 112.783 24.144C114.247 24.96 115.387 26.1 116.203 27.564C117.043 29.028 117.463 30.684 117.463 32.532C117.463 34.38 117.043 36.036 116.203 37.5C115.387 38.964 114.247 40.116 112.783 40.956C111.319 41.772 109.675 42.18 107.851 42.18ZM107.851 39.912C109.195 39.912 110.395 39.612 111.451 39.012C112.531 38.388 113.371 37.512 113.971 36.384C114.571 35.256 114.871 33.972 114.871 32.532C114.871 31.092 114.571 29.808 113.971 28.68C113.371 27.552 112.531 26.688 111.451 26.088C110.395 25.464 109.195 25.152 107.851 25.152C106.507 25.152 105.295 25.464 104.215 26.088C103.159 26.688 102.319 27.552 101.695 28.68C101.095 29.808 100.795 31.092 100.795 32.532C100.795 33.972 101.095 35.256 101.695 36.384C102.319 37.512 103.159 38.388 104.215 39.012C105.295 39.612 106.507 39.912 107.851 39.912ZM131.501 32.496L127.037 36.6V42H124.481V15.288H127.037V33.396L138.341 23.064H141.509L133.409 30.804L142.265 42H139.133L131.501 32.496ZM154.869 42.18C153.045 42.18 151.401 41.772 149.937 40.956C148.473 40.116 147.321 38.964 146.481 37.5C145.641 36.036 145.221 34.38 145.221 32.532C145.221 30.684 145.641 29.028 146.481 27.564C147.321 26.1 148.473 24.96 149.937 24.144C151.401 23.328 153.045 22.92 154.869 22.92C156.693 22.92 158.337 23.328 159.801 24.144C161.265 24.96 162.405 26.1 163.221 27.564C164.061 29.028 164.481 30.684 164.481 32.532C164.481 34.38 164.061 36.036 163.221 37.5C162.405 38.964 161.265 40.116 159.801 40.956C158.337 41.772 156.693 42.18 154.869 42.18ZM154.869 39.912C156.213 39.912 157.413 39.612 158.469 39.012C159.549 38.388 160.389 37.512 160.989 36.384C161.589 35.256 161.889 33.972 161.889 32.532C161.889 31.092 161.589 29.808 160.989 28.68C160.389 27.552 159.549 26.688 158.469 26.088C157.413 25.464 156.213 25.152 154.869 25.152C153.525 25.152 152.313 25.464 151.233 26.088C150.177 26.688 149.337 27.552 148.713 28.68C148.113 29.808 147.813 31.092 147.813 32.532C147.813 33.972 148.113 35.256 148.713 36.384C149.337 37.512 150.177 38.388 151.233 39.012C152.313 39.612 153.525 39.912 154.869 39.912ZM173.947 26.772C174.547 25.5 175.435 24.54 176.611 23.892C177.811 23.244 179.287 22.92 181.039 22.92V25.404L180.427 25.368C178.435 25.368 176.875 25.98 175.747 27.204C174.619 28.428 174.055 30.144 174.055 32.352V42H171.499V23.064H173.947V26.772ZM203.779 33.324H187.939C188.083 35.292 188.839 36.888 190.207 38.112C191.575 39.312 193.303 39.912 195.391 39.912C196.567 39.912 197.647 39.708 198.631 39.3C199.615 38.868 200.467 38.244 201.187 37.428L202.627 39.084C201.787 40.092 200.731 40.86 199.459 41.388C198.211 41.916 196.831 42.18 195.319 42.18C193.375 42.18 191.647 41.772 190.135 40.956C188.647 40.116 187.483 38.964 186.643 37.5C185.803 36.036 185.383 34.38 185.383 32.532C185.383 30.684 185.779 29.028 186.571 27.564C187.387 26.1 188.491 24.96 189.883 24.144C191.299 23.328 192.883 22.92 194.635 22.92C196.387 22.92 197.959 23.328 199.351 24.144C200.743 24.96 201.835 26.1 202.627 27.564C203.419 29.004 203.815 30.66 203.815 32.532L203.779 33.324ZM194.635 25.116C192.811 25.116 191.275 25.704 190.027 26.88C188.803 28.032 188.107 29.544 187.939 31.416H201.367C201.199 29.544 200.491 28.032 199.243 26.88C198.019 25.704 196.483 25.116 194.635 25.116ZM220.466 22.92C222.842 22.92 224.726 23.616 226.118 25.008C227.534 26.376 228.242 28.38 228.242 31.02V42H225.686V31.272C225.686 29.304 225.194 27.804 224.21 26.772C223.226 25.74 221.822 25.224 219.998 25.224C217.958 25.224 216.338 25.836 215.138 27.06C213.962 28.26 213.374 29.928 213.374 32.064V42H210.818V15.288H213.374V26.376C214.07 25.272 215.03 24.42 216.254 23.82C217.478 23.22 218.882 22.92 220.466 22.92ZM243.605 22.92C246.077 22.92 247.973 23.544 249.293 24.792C250.613 26.016 251.273 27.84 251.273 30.264V42H248.825V39.048C248.249 40.032 247.397 40.8 246.269 41.352C245.165 41.904 243.845 42.18 242.309 42.18C240.197 42.18 238.517 41.676 237.269 40.668C236.021 39.66 235.397 38.328 235.397 36.672C235.397 35.064 235.973 33.768 237.125 32.784C238.301 31.8 240.161 31.308 242.705 31.308H248.717V30.156C248.717 28.524 248.261 27.288 247.349 26.448C246.437 25.584 245.105 25.152 243.353 25.152C242.153 25.152 241.001 25.356 239.897 25.764C238.793 26.148 237.845 26.688 237.053 27.384L235.901 25.476C236.861 24.66 238.013 24.036 239.357 23.604C240.701 23.148 242.117 22.92 243.605 22.92ZM242.705 40.164C244.145 40.164 245.381 39.84 246.413 39.192C247.445 38.52 248.213 37.56 248.717 36.312V33.216H242.777C239.537 33.216 237.917 34.344 237.917 36.6C237.917 37.704 238.337 38.58 239.177 39.228C240.017 39.852 241.193 40.164 242.705 40.164Z" fill="#686868"/>
<defs>
<clipPath id="clip0_663:618">
<rect width="55.2248" height="55.2248" fill="white" transform="translate(0 1)"/>
</clipPath>
</defs>
</svg>
