<svg width="301" height="52" viewBox="0 0 301 52" fill="none" xmlns="http://www.w3.org/2000/svg">
<path d="M155.516 41.8543C154.72 41.8543 153.927 41.8879 153.138 41.9552C152.348 42.0225 151.541 42.1679 150.717 42.3924C149.893 42.6169 149.209 42.9414 148.663 43.3668C148.117 43.7923 147.838 44.3804 147.827 45.1312C147.838 45.8593 148.077 46.4028 148.543 46.7611C149.009 47.12 149.528 47.3492 150.103 47.45C150.677 47.5509 151.277 47.601 151.902 47.601C152.629 47.6346 153.3 47.6432 153.913 47.626C154.527 47.6088 155.061 47.5783 155.516 47.5337V49.298C154.323 49.3872 153.147 49.3989 151.987 49.3317C150.749 49.2871 149.717 49.1526 148.894 48.9282C148.069 48.7045 147.373 48.2814 146.805 47.6596C146.237 47.0379 145.97 46.1557 146.004 45.0131C146.049 44.3632 146.202 43.7978 146.464 43.316C146.725 42.8342 147.035 42.451 147.393 42.1648C147.751 41.8786 148.169 41.5853 148.646 41.2826L147.862 36.6113H149.669L150.334 40.7109C151.38 40.3973 152.314 40.2182 153.138 40.1729C153.962 40.1283 154.754 40.1001 155.516 40.0892V41.8543ZM152.516 39.0318V36.6121H153.692V39.0318H152.516ZM154.357 39.0318V36.6121H155.533V39.0318H154.357Z" fill="#686868"/>
<path d="M159.804 43.6405H161.884C161.406 44.0996 161.028 44.5227 160.75 44.909C160.471 45.2954 160.338 45.6739 160.349 46.043C160.349 46.3457 160.443 46.6225 160.63 46.8744C160.817 47.1262 161.13 47.306 161.568 47.4124C162.005 47.5188 162.645 47.5775 163.486 47.5892C164.417 47.5892 165.213 47.5555 165.873 47.4883C166.531 47.421 167.162 47.3373 167.765 47.2364V49.0509C166.264 49.2636 164.713 49.3645 163.111 49.3535C161.611 49.3426 160.48 49.0595 159.719 48.505C158.957 47.9505 158.583 47.1747 158.594 46.1775C158.617 45.5949 158.73 45.1131 158.935 44.7323C159.139 44.3522 159.429 43.9878 159.804 43.6405ZM158.832 37.1548H167.253V38.4992L164.781 40.5325H162.549L164.287 38.9199H158.832V37.1548Z" fill="#686868"/>
<path d="M180.577 37.1167V38.9639C179.607 39.0672 178.676 39.3816 177.783 39.9048C176.89 40.4288 176.136 41.0239 175.523 41.6918C174.91 42.3597 174.516 43.0213 174.341 43.6775C174.096 44.5636 174.119 45.2831 174.411 45.8352C174.703 46.3873 175.085 46.7823 175.558 47.0177C176.031 47.2539 176.53 47.3947 177.055 47.4408C177.627 47.487 178.112 47.4924 178.509 47.458C178.906 47.4236 179.291 47.3775 179.665 47.3196V49.2357C179.279 49.2818 178.868 49.3076 178.43 49.3131C177.992 49.3193 177.511 49.3045 176.986 49.2701C176.53 49.2474 175.987 49.1348 175.356 48.9338C174.726 48.7328 174.192 48.4333 173.754 48.036C173.316 47.6387 172.945 47.1358 172.641 46.525C172.337 45.915 172.233 45.1212 172.326 44.1428C172.443 43.464 172.648 42.8423 172.94 42.2783C173.232 41.7145 173.558 41.2312 173.92 40.8284C174.282 40.4256 174.597 40.112 174.866 39.8876C175.134 39.6631 175.578 39.344 176.198 38.9295H169.927V37.1167H180.577ZM177.88 42.9517V40.4655H179.088V42.9517H177.88ZM179.771 42.9517V40.4655H180.98V42.9517H179.771Z" fill="#686868"/>
<path d="M183.877 38.203H186.485C186.53 37.374 186.559 36.7304 186.57 36.2705H188.343C188.32 36.696 188.285 37.3404 188.24 38.203H192.383V39.9337H188.155C188.11 40.4045 188.082 40.7651 188.07 41.0177C188.059 41.2695 188.042 41.6425 188.02 42.1352H191.208V43.8323H187.986C187.883 45.0758 187.977 46.0253 188.266 46.6806C188.556 47.336 189.178 47.6801 190.133 47.7137C190.849 47.7028 191.378 47.6019 191.719 47.4111C192.06 47.221 192.292 46.938 192.418 46.5626C192.542 46.1872 192.605 45.8204 192.605 45.4622C192.605 45.0923 192.568 44.8373 192.494 44.3837C192.42 43.9301 192.343 43.5524 192.264 43.2497H194.002C194.298 44.1905 194.446 44.9413 194.446 45.8149C194.446 46.0949 194.389 46.4531 194.275 46.8903C194.162 47.3274 193.952 47.7443 193.645 48.1423C193.338 48.5404 192.911 48.8618 192.366 49.1082C191.82 49.3545 191.076 49.489 190.133 49.5117C189.042 49.5008 188.205 49.2427 187.619 48.739C187.033 48.2346 186.63 47.58 186.409 46.7729C186.188 45.9658 186.122 44.9867 186.213 43.8323H183.878V42.1352H186.281C186.337 41.1717 186.377 40.4382 186.4 39.9345H183.877V38.203Z" fill="#686868"/>
<path d="M196.722 43.5177V36.4438H198.546V43.5177H196.722ZM199.176 47.6846C199.586 47.5954 200.022 47.4437 200.488 47.231C200.954 47.0182 201.394 46.7046 201.81 46.2901C202.225 45.8756 202.588 45.3321 202.9 44.6603C203.213 43.9885 203.375 43.165 203.386 42.1905V36.4438H205.21V42.1905C205.199 43.5349 204.983 44.6689 204.563 45.5933C204.142 46.5177 203.589 47.2653 202.9 47.8362C202.213 48.408 201.559 48.8193 200.94 49.0711C200.32 49.323 199.732 49.5107 199.175 49.6342V47.6846H199.176Z" fill="#686868"/>
<path d="M207.001 49.3215C207.24 48.7225 207.498 47.9741 207.777 47.0755C208.056 46.1769 208.302 45.1086 208.519 43.869C208.735 42.6302 208.848 41.2584 208.86 39.7553V36.4956H210.684V39.7553C210.684 41.3648 210.602 42.7827 210.437 44.0097C210.272 45.2376 210.067 46.2621 209.824 47.0841C209.579 47.906 209.331 48.6521 209.082 49.3215H207.001ZM217.775 49.3215H215.832C215.479 48.6404 215.192 47.8919 214.971 47.0755C214.75 46.259 214.547 45.2376 214.366 44.0097C214.184 42.7827 214.092 41.364 214.092 39.7553V36.4956H215.917V39.7553C215.928 41.2592 216.041 42.6302 216.258 43.869C216.474 45.1086 216.72 46.1769 217 47.0755C217.277 47.9741 217.536 48.7225 217.775 49.3215Z" fill="#686868"/>
<path d="M83.7639 28.4959H81.585V26.5643C80.5187 27.8933 78.9425 28.7433 76.8253 28.7433C73.1783 28.7433 70.5049 25.6681 70.5049 21.1556C70.5049 16.6433 73.1783 13.568 76.8253 13.568C78.9116 13.568 80.4878 14.4025 81.5541 15.716V6.24316H83.7639V28.4959ZM81.6777 21.1556C81.6777 17.8486 79.8542 15.6697 77.2271 15.6697C74.5382 15.6697 72.7611 17.8795 72.7611 21.1556C72.7611 24.4317 74.5382 26.6415 77.2271 26.6415C79.8581 26.6415 81.6777 24.4781 81.6777 21.1556Z" fill="#686868"/>
<path d="M100.633 21.1555C100.633 25.6679 97.8054 28.7431 93.8338 28.7431C89.8778 28.7431 87.0654 25.6679 87.0654 21.1555C87.0654 16.6431 89.8778 13.5679 93.8338 13.5679C97.8054 13.5679 100.633 16.6431 100.633 21.1555ZM89.3254 21.1555C89.3254 24.5088 91.2106 26.6413 93.8378 26.6413C96.4802 26.6413 98.381 24.4934 98.381 21.1555C98.381 17.8176 96.4802 15.685 93.8378 15.685C91.2068 15.685 89.3254 17.8176 89.3254 21.1555Z" fill="#686868"/>
<path d="M115.403 15.8704L113.935 17.2921C113.023 16.2722 111.895 15.685 110.52 15.685C107.985 15.685 106.1 17.7866 106.1 21.1555C106.1 24.5243 107.985 26.6413 110.52 26.6413C111.895 26.6413 113.085 25.9923 113.966 25.0187L115.403 26.4405C114.244 27.9239 112.529 28.7431 110.535 28.7431C106.533 28.7431 103.844 25.6679 103.844 21.1555C103.844 16.6431 106.533 13.5679 110.535 13.5679C112.529 13.5679 114.259 14.3869 115.403 15.8704Z" fill="#686868"/>
<path d="M131.926 21.1555C131.926 25.6679 129.098 28.7431 125.127 28.7431C121.171 28.7431 118.358 25.6679 118.358 21.1555C118.358 16.6431 121.171 13.5679 125.127 13.5679C129.098 13.5679 131.926 16.6431 131.926 21.1555ZM120.618 21.1555C120.618 24.5088 122.504 26.6413 125.131 26.6413C127.773 26.6413 129.674 24.4934 129.674 21.1555C129.674 17.8176 127.773 15.685 125.131 15.685C122.504 15.685 120.618 17.8176 120.618 21.1555Z" fill="#686868"/>
<path d="M148.395 28.4965H146.216V26.5647C145.149 27.8937 143.573 28.7437 141.456 28.7437C137.809 28.7437 135.136 25.6685 135.136 21.1561C135.136 16.6437 137.809 13.5685 141.456 13.5685C143.542 13.5685 145.119 14.403 146.185 15.7165V6.24365H148.395V28.4965ZM146.308 21.1561C146.308 17.8491 144.485 15.6702 141.858 15.6702C139.169 15.6702 137.392 17.88 137.392 21.1561C137.392 24.4322 139.169 26.6421 141.858 26.6421C144.485 26.6421 146.308 24.4786 146.308 21.1561Z" fill="#686868"/>
<path d="M165.27 21.959H154.916C155.179 25.1269 157.002 26.7495 159.459 26.7495C161.128 26.7495 162.472 26.0695 163.539 25.0187L164.729 26.5487C163.122 28.1867 161.267 28.7431 159.305 28.7431C155.318 28.7431 152.629 25.8223 152.629 21.1709C152.629 16.5504 155.302 13.5679 159.135 13.5679C162.751 13.5679 165.316 16.5349 165.316 21.14C165.316 21.4182 165.3 21.7118 165.27 21.959ZM163.06 20.1046C162.844 17.354 161.313 15.5768 159.104 15.5768C156.77 15.5768 155.241 17.3076 154.947 20.1046H163.06Z" fill="#686868"/>
<path d="M191.823 18.8998V28.4963H189.613V19.5334C189.613 17.1072 188.253 15.6855 185.95 15.6855C183.818 15.6855 182.133 17.2154 182.133 19.6107V28.4963H179.924V19.5334C179.924 17.1072 178.564 15.6855 176.261 15.6855C174.129 15.6855 172.444 17.2309 172.444 19.6261V28.4963H170.234V13.8195H172.398V15.6276C173.48 14.1904 175.148 13.5723 176.879 13.5723C178.981 13.5723 180.619 14.4995 181.484 16.0912C182.582 14.3295 184.529 13.5723 186.538 13.5723C189.706 13.5684 191.823 15.6237 191.823 18.8998Z" fill="#686868"/>
<path d="M209.484 21.1555C209.484 25.6679 206.656 28.7431 202.685 28.7431C198.728 28.7431 195.916 25.6679 195.916 21.1555C195.916 16.6431 198.728 13.5679 202.685 13.5679C206.656 13.5679 209.484 16.6431 209.484 21.1555ZM198.176 21.1555C198.176 24.5088 200.061 26.6413 202.688 26.6413C205.331 26.6413 207.232 24.4934 207.232 21.1555C207.232 17.8176 205.331 15.685 202.688 15.685C200.057 15.685 198.176 17.8176 198.176 21.1555Z" fill="#686868"/>
<path d="M231.602 14.0012L231.107 16.211C230.536 15.9328 229.747 15.7783 229.021 15.7783C226.95 15.7783 225.575 17.4318 225.575 19.9043V28.4963H223.365V13.8196H225.513V15.6585C226.379 14.2832 227.723 13.5723 229.423 13.5723C230.273 13.5685 230.999 13.7076 231.602 14.0012Z" fill="#686868"/>
<path d="M246.61 21.959H236.256C236.519 25.1269 238.342 26.7495 240.799 26.7495C242.468 26.7495 243.813 26.0695 244.879 25.0187L246.069 26.5487C244.462 28.1867 242.607 28.7431 240.645 28.7431C236.658 28.7431 233.969 25.8223 233.969 21.1709C233.969 16.5504 236.642 13.5679 240.475 13.5679C244.091 13.5679 246.656 16.5349 246.656 21.14C246.656 21.4182 246.641 21.7118 246.61 21.959ZM244.4 20.1046C244.183 17.354 242.654 15.5768 240.444 15.5768C238.11 15.5768 236.58 17.3076 236.287 20.1046H244.4Z" fill="#686868"/>
<path d="M263.82 18.8995V28.4961H261.61V19.5331C261.61 17.1069 260.252 15.6852 257.948 15.6852C255.816 15.6852 254.132 17.2305 254.132 19.6258V28.4961H251.922V6.24707H254.132V15.6427C255.182 14.2056 256.836 13.572 258.552 13.572C261.688 13.5681 263.82 15.6234 263.82 18.8995Z" fill="#686868"/>
<path d="M281.157 28.4924H278.979V26.3136C277.943 27.7816 276.367 28.7396 274.219 28.7396C270.571 28.7396 267.899 25.6644 267.899 21.1521C267.899 16.6397 270.587 13.5645 274.235 13.5645C276.367 13.5645 277.943 14.5071 278.979 15.9597V13.8117H281.157V28.4924ZM279.055 21.1559C279.055 17.8489 277.247 15.6854 274.621 15.6854C271.947 15.6854 270.169 17.8953 270.169 21.1559C270.169 24.432 271.947 26.6264 274.621 26.6264C277.247 26.6264 279.055 24.4629 279.055 21.1559Z" fill="#686868"/>
<g clip-path="url(#clip0_448:655)">
<path d="M12.8014 21.9645C15.03 14.6754 22.7455 10.5728 30.0346 12.8014C31.1744 13.1498 32.2352 13.6324 33.2065 14.2262L31.0465 21.2927C30.2478 20.4348 29.2193 19.7682 28.0171 19.4011C24.373 18.2872 20.5148 20.338 19.401 23.982C18.2872 27.6261 20.338 31.4843 23.982 32.5982C27.6261 33.712 31.4843 31.6611 32.5981 28.0171L38.9512 7.23551L35.7575 4.04181C30.3684 -1.34727 21.6297 -1.34727 16.2405 4.04181L4.04181 16.2405C-1.34727 21.6297 -1.34727 30.3684 4.04181 35.7576L7.5205 39.2362L12.8014 21.9645Z" fill="#FF9533"/>
<path d="M47.9572 16.2414L44.4786 12.7627L39.1987 30.0354C36.9701 37.3245 29.2546 41.4272 21.9655 39.1986C19.561 38.4633 17.504 37.1321 15.9067 35.4152L13.0488 44.7644L16.2426 47.9582C21.6316 53.3472 30.3705 53.3472 35.7595 47.9582L47.9583 35.7594C53.3474 30.3693 53.3474 21.6315 47.9572 16.2414Z" fill="#FF9533"/>
</g>
<defs>
<clipPath id="clip0_448:655">
<rect width="52" height="52" fill="white"/>
</clipPath>
</defs>
</svg>
