<svg width="255" height="59" viewBox="0 0 255 59" fill="none" xmlns="http://www.w3.org/2000/svg">
<g clip-path="url(#clip0_642:2049)">
<path d="M13.5953 24.6489C15.9621 16.9078 24.1561 12.5507 31.8972 14.9175C33.1077 15.2875 34.2342 15.8001 35.2659 16.4307L32.9719 23.9354C32.1237 23.0243 31.0314 22.3164 29.7546 21.9265C25.8846 20.7436 21.787 22.9215 20.6041 26.7916C19.4213 30.6616 21.5993 34.7591 25.4693 35.942C29.3393 37.1249 33.4369 34.9469 34.6197 31.0769L41.3668 9.00649L37.975 5.61473C32.2517 -0.108558 22.9711 -0.108558 17.2477 5.61473L4.29247 18.57C-1.43082 24.2933 -1.43082 33.574 4.29247 39.2974L7.98689 42.9918L13.5953 24.6489Z" fill="white"/>
<path d="M50.9317 18.571L47.2373 14.8766L41.63 33.2205C39.2631 40.9616 31.0691 45.3187 23.328 42.9519C20.7745 42.1711 18.5899 40.7573 16.8935 38.9339L13.8584 48.8629L17.2502 52.2547C22.9735 57.978 32.2542 57.978 37.9775 52.2547L50.9328 39.2995C56.6561 33.5751 56.6561 24.2954 50.9317 18.571Z" fill="white"/>
</g>
<path d="M91.1924 15.6103V42.3223H88.7444V38.5783C87.9764 39.8503 86.9564 40.8223 85.6844 41.4943C84.4364 42.1663 83.0204 42.5023 81.4364 42.5023C79.6604 42.5023 78.0524 42.0943 76.6124 41.2783C75.1724 40.4623 74.0444 39.3223 73.2284 37.8583C72.4124 36.3943 72.0044 34.7263 72.0044 32.8543C72.0044 30.9823 72.4124 29.3143 73.2284 27.8503C74.0444 26.3863 75.1724 25.2583 76.6124 24.4663C78.0524 23.6503 79.6604 23.2423 81.4364 23.2423C82.9724 23.2423 84.3524 23.5663 85.5764 24.2143C86.8244 24.8383 87.8444 25.7623 88.6364 26.9863V15.6103H91.1924ZM81.6524 40.2343C82.9724 40.2343 84.1604 39.9343 85.2164 39.3343C86.2964 38.7103 87.1364 37.8343 87.7364 36.7063C88.3604 35.5783 88.6724 34.2943 88.6724 32.8543C88.6724 31.4143 88.3604 30.1303 87.7364 29.0023C87.1364 27.8743 86.2964 27.0103 85.2164 26.4103C84.1604 25.7863 82.9724 25.4743 81.6524 25.4743C80.3084 25.4743 79.0964 25.7863 78.0164 26.4103C76.9604 27.0103 76.1204 27.8743 75.4964 29.0023C74.8964 30.1303 74.5964 31.4143 74.5964 32.8543C74.5964 34.2943 74.8964 35.5783 75.4964 36.7063C76.1204 37.8343 76.9604 38.7103 78.0164 39.3343C79.0964 39.9343 80.3084 40.2343 81.6524 40.2343ZM107.851 42.5023C106.027 42.5023 104.383 42.0943 102.919 41.2783C101.455 40.4383 100.303 39.2863 99.4629 37.8223C98.6229 36.3583 98.2029 34.7023 98.2029 32.8543C98.2029 31.0063 98.6229 29.3503 99.4629 27.8863C100.303 26.4223 101.455 25.2823 102.919 24.4663C104.383 23.6503 106.027 23.2423 107.851 23.2423C109.675 23.2423 111.319 23.6503 112.783 24.4663C114.247 25.2823 115.387 26.4223 116.203 27.8863C117.043 29.3503 117.463 31.0063 117.463 32.8543C117.463 34.7023 117.043 36.3583 116.203 37.8223C115.387 39.2863 114.247 40.4383 112.783 41.2783C111.319 42.0943 109.675 42.5023 107.851 42.5023ZM107.851 40.2343C109.195 40.2343 110.395 39.9343 111.451 39.3343C112.531 38.7103 113.371 37.8343 113.971 36.7063C114.571 35.5783 114.871 34.2943 114.871 32.8543C114.871 31.4143 114.571 30.1303 113.971 29.0023C113.371 27.8743 112.531 27.0103 111.451 26.4103C110.395 25.7863 109.195 25.4743 107.851 25.4743C106.507 25.4743 105.295 25.7863 104.215 26.4103C103.159 27.0103 102.319 27.8743 101.695 29.0023C101.095 30.1303 100.795 31.4143 100.795 32.8543C100.795 34.2943 101.095 35.5783 101.695 36.7063C102.319 37.8343 103.159 38.7103 104.215 39.3343C105.295 39.9343 106.507 40.2343 107.851 40.2343ZM131.501 32.8183L127.037 36.9223V42.3223H124.481V15.6103H127.037V33.7183L138.341 23.3863H141.509L133.409 31.1263L142.265 42.3223H139.133L131.501 32.8183ZM154.869 42.5023C153.045 42.5023 151.401 42.0943 149.937 41.2783C148.473 40.4383 147.321 39.2863 146.481 37.8223C145.641 36.3583 145.221 34.7023 145.221 32.8543C145.221 31.0063 145.641 29.3503 146.481 27.8863C147.321 26.4223 148.473 25.2823 149.937 24.4663C151.401 23.6503 153.045 23.2423 154.869 23.2423C156.693 23.2423 158.337 23.6503 159.801 24.4663C161.265 25.2823 162.405 26.4223 163.221 27.8863C164.061 29.3503 164.481 31.0063 164.481 32.8543C164.481 34.7023 164.061 36.3583 163.221 37.8223C162.405 39.2863 161.265 40.4383 159.801 41.2783C158.337 42.0943 156.693 42.5023 154.869 42.5023ZM154.869 40.2343C156.213 40.2343 157.413 39.9343 158.469 39.3343C159.549 38.7103 160.389 37.8343 160.989 36.7063C161.589 35.5783 161.889 34.2943 161.889 32.8543C161.889 31.4143 161.589 30.1303 160.989 29.0023C160.389 27.8743 159.549 27.0103 158.469 26.4103C157.413 25.7863 156.213 25.4743 154.869 25.4743C153.525 25.4743 152.313 25.7863 151.233 26.4103C150.177 27.0103 149.337 27.8743 148.713 29.0023C148.113 30.1303 147.813 31.4143 147.813 32.8543C147.813 34.2943 148.113 35.5783 148.713 36.7063C149.337 37.8343 150.177 38.7103 151.233 39.3343C152.313 39.9343 153.525 40.2343 154.869 40.2343ZM173.947 27.0943C174.547 25.8223 175.435 24.8623 176.611 24.2143C177.811 23.5663 179.287 23.2423 181.039 23.2423V25.7263L180.427 25.6903C178.435 25.6903 176.875 26.3023 175.747 27.5263C174.619 28.7503 174.055 30.4663 174.055 32.6743V42.3223H171.499V23.3863H173.947V27.0943ZM203.779 33.6463H187.939C188.083 35.6143 188.839 37.2103 190.207 38.4343C191.575 39.6343 193.303 40.2343 195.391 40.2343C196.567 40.2343 197.647 40.0303 198.631 39.6223C199.615 39.1903 200.467 38.5663 201.187 37.7503L202.627 39.4063C201.787 40.4143 200.731 41.1823 199.459 41.7103C198.211 42.2383 196.831 42.5023 195.319 42.5023C193.375 42.5023 191.647 42.0943 190.135 41.2783C188.647 40.4383 187.483 39.2863 186.643 37.8223C185.803 36.3583 185.383 34.7023 185.383 32.8543C185.383 31.0063 185.779 29.3503 186.571 27.8863C187.387 26.4223 188.491 25.2823 189.883 24.4663C191.299 23.6503 192.883 23.2423 194.635 23.2423C196.387 23.2423 197.959 23.6503 199.351 24.4663C200.743 25.2823 201.835 26.4223 202.627 27.8863C203.419 29.3263 203.815 30.9823 203.815 32.8543L203.779 33.6463ZM194.635 25.4383C192.811 25.4383 191.275 26.0263 190.027 27.2023C188.803 28.3543 188.107 29.8663 187.939 31.7383H201.367C201.199 29.8663 200.491 28.3543 199.243 27.2023C198.019 26.0263 196.483 25.4383 194.635 25.4383ZM220.466 23.2423C222.842 23.2423 224.726 23.9383 226.118 25.3303C227.534 26.6983 228.242 28.7023 228.242 31.3423V42.3223H225.686V31.5943C225.686 29.6263 225.194 28.1263 224.21 27.0943C223.226 26.0623 221.822 25.5463 219.998 25.5463C217.958 25.5463 216.338 26.1583 215.138 27.3823C213.962 28.5823 213.374 30.2503 213.374 32.3863V42.3223H210.818V15.6103H213.374V26.6983C214.07 25.5943 215.03 24.7423 216.254 24.1423C217.478 23.5423 218.882 23.2423 220.466 23.2423ZM243.605 23.2423C246.077 23.2423 247.973 23.8663 249.293 25.1143C250.613 26.3383 251.273 28.1623 251.273 30.5863V42.3223H248.825V39.3703C248.249 40.3543 247.397 41.1223 246.269 41.6743C245.165 42.2263 243.845 42.5023 242.309 42.5023C240.197 42.5023 238.517 41.9983 237.269 40.9903C236.021 39.9823 235.397 38.6503 235.397 36.9943C235.397 35.3863 235.973 34.0903 237.125 33.1063C238.301 32.1223 240.161 31.6303 242.705 31.6303H248.717V30.4783C248.717 28.8463 248.261 27.6103 247.349 26.7703C246.437 25.9063 245.105 25.4743 243.353 25.4743C242.153 25.4743 241.001 25.6783 239.897 26.0863C238.793 26.4703 237.845 27.0103 237.053 27.7063L235.901 25.7983C236.861 24.9823 238.013 24.3583 239.357 23.9263C240.701 23.4703 242.117 23.2423 243.605 23.2423ZM242.705 40.4863C244.145 40.4863 245.381 40.1623 246.413 39.5143C247.445 38.8423 248.213 37.8823 248.717 36.6343V33.5383H242.777C239.537 33.5383 237.917 34.6663 237.917 36.9223C237.917 38.0263 238.337 38.9023 239.177 39.5503C240.017 40.1743 241.193 40.4863 242.705 40.4863Z" fill="white"/>
<defs>
<clipPath id="clip0_642:2049">
<rect width="55.2248" height="55.2248" fill="white" transform="translate(0 1.32227)"/>
</clipPath>
</defs>
</svg>
