<svg width="52" height="52" viewBox="0 0 52 52" fill="none" xmlns="http://www.w3.org/2000/svg">
<g clip-path="url(#clip0_559:2077)">
<path d="M12.8014 21.9645C15.03 14.6754 22.7455 10.5728 30.0346 12.8014C31.1744 13.1498 32.2352 13.6324 33.2065 14.2262L31.0465 21.2927C30.2478 20.4348 29.2193 19.7682 28.0171 19.4011C24.373 18.2872 20.5148 20.338 19.401 23.982C18.2872 27.6261 20.338 31.4843 23.982 32.5982C27.6261 33.712 31.4843 31.6611 32.5981 28.0171L38.9512 7.23551L35.7575 4.04181C30.3684 -1.34727 21.6297 -1.34727 16.2405 4.04181L4.04181 16.2405C-1.34727 21.6297 -1.34727 30.3684 4.04181 35.7576L7.5205 39.2362L12.8014 21.9645Z" fill="#FF9533"/>
<path d="M47.9572 16.2414L44.4786 12.7627L39.1987 30.0354C36.9701 37.3245 29.2546 41.4272 21.9655 39.1986C19.561 38.4633 17.504 37.1321 15.9067 35.4152L13.0488 44.7644L16.2426 47.9582C21.6316 53.3472 30.3705 53.3472 35.7595 47.9582L47.9583 35.7594C53.3474 30.3693 53.3474 21.6315 47.9572 16.2414Z" fill="#FF9533"/>
</g>
<defs>
<clipPath id="clip0_559:2077">
<rect width="52" height="52" fill="white"/>
</clipPath>
</defs>
</svg>
