<svg width="42" height="43" viewBox="0 0 42 43" fill="none" xmlns="http://www.w3.org/2000/svg">
<rect y="0.5" width="42" height="42" rx="8" fill="#D50000"/>
<path d="M31.2889 17.8947L24.6938 16.9366L21.7455 10.9622C21.665 10.7986 21.5325 10.6662 21.3689 10.5857C20.9585 10.3832 20.4598 10.5519 20.2546 10.9622L17.3063 16.9366L10.7112 17.8947C10.5293 17.9207 10.3631 18.0063 10.2358 18.1362C10.0819 18.2943 9.99715 18.5069 10.0001 18.7275C10.003 18.948 10.0934 19.1584 10.2514 19.3124L15.0231 23.9626L13.8958 30.529C13.8693 30.6818 13.8862 30.8389 13.9446 30.9825C14.0029 31.1261 14.1003 31.2505 14.2258 31.3416C14.3513 31.4327 14.4998 31.4869 14.6545 31.4979C14.8092 31.5089 14.9639 31.4764 15.101 31.404L21.0001 28.3039L26.8991 31.404C27.0601 31.4897 27.2472 31.5183 27.4264 31.4871C27.8784 31.4092 28.1823 30.9808 28.1043 30.529L26.977 23.9626L31.7487 19.3124C31.8786 19.1851 31.9643 19.019 31.9903 18.8372C32.0604 18.3828 31.7435 17.9622 31.2889 17.8947Z" fill="#FFC700"/>
</svg>
